<svg width="760" height="494" viewBox="0 0 760 494" fill="none" xmlns="http://www.w3.org/2000/svg">
<rect width="760" height="493.328" rx="32" fill="white"/>
<g clip-path="url(#clip0_61_483)">
<path d="M228.068 105H140.931C128.266 105 118 116.494 118 130.672V270.328C118 284.506 128.266 296 140.931 296H228.068C240.733 296 251 284.506 251 270.328V130.672C251 116.494 240.733 105 228.068 105Z" fill="#28A263"/>
<path d="M177.313 258H178.866V273H177.313V258.115V258ZM178.348 271.397C177.416 271.397 176.691 271.282 176.07 270.939C175.497 270.612 175.001 270.141 174.621 269.565C174.207 268.992 174 268.305 174 267.504H175.76C175.76 268.191 176.07 268.649 176.484 269.221C177.002 269.565 177.623 269.794 178.451 269.794C179.031 269.815 179.605 269.657 180.108 269.336C180.522 269.107 180.729 268.649 180.729 268.191C180.729 267.733 180.626 267.389 180.315 267.046C180.108 266.817 179.59 266.588 178.866 266.473L177.209 266.015C176.174 265.786 175.449 265.443 174.931 264.87C174.517 264.412 174.31 263.725 174.31 262.924C174.31 262.237 174.414 261.779 174.828 261.206C175.172 260.694 175.638 260.297 176.174 260.061C176.691 259.718 177.416 259.603 178.141 259.603C178.829 259.61 179.506 259.807 180.108 260.176C180.648 260.51 181.109 260.981 181.454 261.55C181.868 262.122 182.075 262.695 182.075 263.267H180.419C180.389 262.882 180.243 262.519 180.004 262.237C179.785 261.934 179.5 261.697 179.176 261.55C178.782 261.374 178.358 261.295 177.934 261.321C177.416 261.321 176.898 261.435 176.484 261.779C176.313 261.901 176.175 262.072 176.084 262.273C175.993 262.474 175.953 262.699 175.967 262.924C175.967 263.267 176.07 263.611 176.381 263.84L177.83 264.527L179.59 265.099C180.522 265.328 181.143 265.672 181.661 266.244C181.972 266.702 182.282 267.389 182.282 268.191C182.282 268.878 182.075 269.45 181.765 269.908C181.454 270.366 180.936 270.71 180.419 271.053C179.797 271.282 179.073 271.397 178.348 271.397ZM185.595 259.947H187.045V271.168H185.492V259.832L185.595 259.947ZM183.214 261.664H183.628C184.249 261.664 184.663 261.55 185.078 261.206C185.388 260.863 185.595 260.405 185.595 259.947H186.32C186.32 260.634 186.216 261.206 186.009 261.779C185.815 262.289 185.481 262.718 185.053 263.006C184.626 263.294 184.127 263.425 183.628 263.382H183.214V261.664ZM192.843 271.397C192.053 271.422 191.277 271.17 190.626 270.676C189.974 270.182 189.482 269.472 189.219 268.649C188.899 267.658 188.758 266.608 188.805 265.557C188.805 264.412 188.908 263.267 189.219 262.466C189.511 261.638 190.015 260.922 190.668 260.405C191.29 259.832 192.014 259.603 192.843 259.603C193.671 259.603 194.396 259.832 195.017 260.405C195.638 260.863 196.052 261.55 196.466 262.351C197.177 264.377 197.177 266.623 196.466 268.649C196.174 269.477 195.671 270.193 195.017 270.71C194.396 271.168 193.671 271.397 192.946 271.397H192.843ZM192.843 269.794C193.36 269.794 193.878 269.565 194.189 269.221C194.603 268.878 194.81 268.42 195.017 267.733C195.237 266.994 195.342 266.22 195.327 265.443C195.327 264.641 195.327 263.84 195.017 263.153C194.81 262.58 194.603 262.122 194.189 261.779C193.816 261.416 193.339 261.212 192.843 261.206C192.346 261.212 191.869 261.416 191.497 261.779C191.186 262.122 190.876 262.58 190.668 263.267C190.448 264.006 190.343 264.78 190.358 265.557C190.358 266.359 190.358 267.16 190.668 267.847C190.876 268.42 191.186 268.992 191.497 269.221C191.911 269.565 192.325 269.794 192.843 269.794Z" fill="white"/>
</g>
<g clip-path="url(#clip1_61_483)">
<path d="M325.568 105H235.43C223.594 105 213.999 115.735 213.999 128.978V272.022C213.999 285.265 223.594 296 235.43 296H325.568C337.404 296 346.999 285.265 346.999 272.022V128.978C346.999 115.735 337.404 105 325.568 105Z" fill="#4CB57F"/>
<path d="M271.703 273H273.119V271.397C275.298 271.168 276.715 270.023 276.715 268.305C276.715 266.588 275.734 265.672 273.991 265.099L273.119 264.87V261.321C274.209 261.55 274.863 262.351 274.972 263.267H276.606C276.497 261.55 274.972 260.061 273.119 259.718V258H271.703V259.718C269.742 259.947 268.435 261.092 268.435 262.809C268.435 264.527 269.306 265.443 271.485 265.901H271.703V269.794C270.614 269.45 269.851 268.649 269.851 267.504H267.999C268.108 269.565 269.415 270.939 271.594 271.282V273H271.703ZM269.96 262.809C269.96 261.893 270.723 261.321 271.703 261.206V264.412C270.614 264.069 269.96 263.611 269.96 262.809ZM273.228 269.908V266.359C274.863 266.817 275.298 267.389 275.298 268.191C275.298 269.107 274.427 269.794 273.119 269.908H273.228ZM278.022 269.45V271.168H285.649V269.679H280.201C283.905 267.389 285.649 265.328 285.649 263.267C285.649 261.092 284.123 259.603 281.835 259.603C279.656 259.603 278.022 261.206 277.913 263.382H279.547C279.547 262.008 280.528 261.092 281.835 261.092C283.143 261.092 284.014 261.893 284.014 263.267C284.014 264.87 282.38 266.702 278.022 269.45ZM291.641 271.397C294.256 271.397 295.999 269.107 295.999 265.443C295.999 261.893 294.256 259.718 291.641 259.718C289.026 259.718 287.392 261.893 287.392 265.443C287.392 269.107 289.026 271.397 291.75 271.397H291.641ZM288.917 265.557C288.917 262.809 290.007 261.092 291.641 261.092C293.384 261.092 294.365 262.809 294.365 265.443C294.365 268.191 293.275 269.908 291.641 269.908C290.007 269.908 288.917 268.191 288.917 265.557Z" fill="white"/>
</g>
<g clip-path="url(#clip2_61_483)">
<path d="M420.068 105H332.93C320.266 105 309.999 116.494 309.999 130.672V270.328C309.999 284.506 320.266 296 332.93 296H420.068C432.732 296 442.999 284.506 442.999 270.328V130.672C442.999 116.494 432.732 105 420.068 105Z" fill="#66DEA2"/>
<path d="M367.462 257.173H368.838V272.356H367.462V257.289V257.173ZM368.288 270.733C367.554 270.733 366.912 270.618 366.362 270.27C365.823 269.978 365.362 269.493 365.036 268.876C364.711 268.259 364.534 267.535 364.528 266.793H366.087C366.087 267.488 366.27 267.952 366.729 268.531C367.187 268.879 367.646 269.111 368.379 269.111C368.893 269.133 369.401 268.972 369.846 268.647C370.305 268.415 370.488 267.952 370.488 267.488C370.488 267.025 370.305 266.677 370.121 266.329C369.846 266.097 369.48 265.866 368.838 265.75L367.279 265.286C366.362 265.054 365.72 264.707 365.354 264.127C364.984 263.634 364.763 262.993 364.73 262.315C364.696 261.637 364.852 260.965 365.17 260.418C365.475 259.899 365.887 259.498 366.362 259.259C366.912 258.911 367.462 258.795 368.196 258.795C368.775 258.821 369.34 259.02 369.846 259.375C370.358 259.698 370.799 260.176 371.13 260.766L371.68 262.504H370.121C370.096 262.114 369.966 261.747 369.755 261.461C369.561 261.155 369.308 260.915 369.021 260.766C368.701 260.604 368.358 260.525 368.013 260.534C367.462 260.534 367.096 260.65 366.729 260.998C366.56 261.106 366.42 261.272 366.322 261.477C366.225 261.682 366.175 261.918 366.179 262.157C366.179 262.504 366.362 262.852 366.545 263.084L367.829 263.779L369.48 264.359C370.213 264.591 370.855 264.938 371.222 265.518C371.588 265.981 371.772 266.677 371.772 267.488C371.772 268.184 371.68 268.763 371.313 269.227C371.038 269.69 370.672 270.038 370.121 270.386C369.53 270.632 368.91 270.75 368.288 270.733ZM372.872 266.677L375.623 259.027H376.998L374.156 267.14L373.606 266.677H379.749V268.3H372.872V266.677ZM376.998 263.663H378.373V270.502H376.998V263.663ZM384.333 270.618C383.661 270.628 383.002 270.378 382.445 269.901C381.887 269.425 381.459 268.745 381.216 267.952C380.901 266.957 380.745 265.894 380.757 264.822C380.757 263.663 380.941 262.504 381.216 261.693C381.475 260.855 381.921 260.13 382.499 259.607C383.05 259.027 383.691 258.795 384.333 258.795C384.975 258.795 385.8 259.027 386.259 259.607C386.824 260.099 387.269 260.781 387.542 261.577C388.172 263.628 388.172 265.901 387.542 267.952C387.284 268.79 386.838 269.515 386.259 270.038C385.8 270.502 385.158 270.733 384.425 270.733L384.333 270.618ZM384.333 269.111C384.883 269.111 385.25 268.879 385.525 268.531C385.892 268.184 386.167 267.72 386.35 267.025C386.545 266.277 386.638 265.493 386.626 264.707C386.626 263.895 386.534 263.084 386.35 262.388C386.167 261.809 385.892 261.345 385.525 260.998C385.22 260.655 384.833 260.451 384.425 260.418C383.986 260.425 383.563 260.63 383.233 260.998C382.866 261.345 382.591 261.809 382.408 262.504C382.213 263.252 382.12 264.036 382.133 264.822C382.133 265.634 382.224 266.445 382.408 267.14C382.591 267.72 382.866 268.3 383.233 268.531C383.508 268.879 383.967 269.111 384.425 269.111H384.333Z" fill="white"/>
</g>
<g clip-path="url(#clip3_61_483)">
<path d="M516.069 105H428.931C416.267 105 406 116.494 406 130.672V270.328C406 284.506 416.267 296 428.931 296H516.069C528.734 296 539 284.506 539 270.328V130.672C539 116.494 528.734 105 516.069 105Z" fill="#2BB970"/>
<path d="M462.975 256H464.37V269H462.975V256.099V256ZM463.812 267.611C463.068 267.611 462.417 267.511 461.86 267.214C461.313 266.964 460.846 266.549 460.515 266.02C460.185 265.492 460.006 264.872 460 264.237H461.581C461.581 264.832 461.767 265.229 462.232 265.725C462.696 266.023 463.161 266.221 463.905 266.221C464.457 266.259 465.007 266.121 465.485 265.824C465.857 265.626 466.043 265.229 466.043 264.832C466.043 264.435 465.857 264.137 465.671 263.84C465.392 263.641 465.021 263.443 464.37 263.344L462.882 262.947C461.953 262.748 461.209 262.45 460.837 261.954C460.465 261.557 460.279 260.962 460.279 260.267C460.279 259.672 460.372 259.275 460.651 258.779C460.96 258.334 461.378 257.991 461.86 257.786C462.417 257.489 462.975 257.389 463.719 257.389C464.306 257.411 464.879 257.581 465.392 257.885C465.911 258.162 466.358 258.571 466.694 259.076C467.066 259.573 467.159 260.069 467.252 260.565H465.671C465.645 260.231 465.514 259.916 465.299 259.672C465.103 259.409 464.847 259.204 464.556 259.076C464.231 258.937 463.883 258.87 463.533 258.878C462.975 258.878 462.603 258.977 462.232 259.275C462.061 259.368 461.918 259.51 461.819 259.686C461.721 259.861 461.67 260.063 461.674 260.267C461.674 260.565 461.86 260.863 462.046 261.061L463.347 261.656L465.021 262.153C465.764 262.351 466.415 262.649 466.787 263.145C467.159 263.542 467.345 264.137 467.345 264.832C467.345 265.427 467.252 265.924 466.88 266.321C466.601 266.718 466.229 267.015 465.671 267.313C465.207 267.511 464.556 267.611 463.812 267.611ZM471.807 267.611C471.157 267.611 470.506 267.511 469.948 267.214C469.501 266.994 469.116 266.652 468.832 266.221C468.522 265.722 468.36 265.134 468.367 264.534H469.855C469.855 265.031 470.041 265.527 470.413 265.725C470.785 266.023 471.25 266.221 471.807 266.221C472.179 266.221 472.551 266.221 472.737 266.023C473.109 265.924 473.388 265.725 473.481 265.427C473.667 265.229 473.76 264.931 473.76 264.634C473.76 264.137 473.481 263.641 473.109 263.443C472.54 263.107 471.899 262.936 471.25 262.947V261.656C471.621 261.656 471.993 261.656 472.365 261.458L473.109 260.962L473.295 260.168C473.295 259.771 473.202 259.473 472.923 259.176C472.644 258.977 472.272 258.779 471.807 258.779C471.342 258.779 470.878 258.977 470.599 259.176C470.44 259.283 470.307 259.429 470.21 259.601C470.113 259.774 470.055 259.968 470.041 260.168H468.739C468.737 259.676 468.866 259.194 469.111 258.779C469.394 258.348 469.779 258.006 470.227 257.786C470.709 257.553 471.232 257.433 471.761 257.433C472.29 257.433 472.813 257.553 473.295 257.786C473.76 257.985 474.132 258.382 474.41 258.779C474.596 259.176 474.782 259.672 474.782 260.168L474.503 261.359C474.308 261.709 474.015 261.986 473.667 262.153C473.29 262.347 472.877 262.449 472.458 262.45V261.954C472.979 261.936 473.494 262.073 473.946 262.351C474.318 262.55 474.596 262.847 474.875 263.244C475.061 263.641 475.154 264.137 475.154 264.634C475.172 265.19 475.043 265.74 474.782 266.221C474.503 266.618 474.039 267.015 473.574 267.214C472.997 267.515 472.356 267.652 471.714 267.611H471.807ZM480.361 267.611C479.652 267.633 478.955 267.414 478.37 266.986C477.785 266.558 477.343 265.943 477.107 265.229C476.787 264.377 476.629 263.467 476.642 262.55C476.642 261.557 476.828 260.565 477.107 259.87C477.369 259.153 477.821 258.532 478.408 258.084C478.966 257.588 479.617 257.389 480.268 257.389C480.918 257.389 481.755 257.588 482.22 258.084C482.793 258.505 483.244 259.09 483.521 259.771C484.16 261.527 484.16 263.473 483.521 265.229C483.259 265.947 482.807 266.567 482.22 267.015C481.755 267.412 481.104 267.611 480.361 267.611ZM480.361 266.221C480.732 266.221 481.197 266.023 481.476 265.725C481.848 265.427 482.127 265.031 482.313 264.435C482.51 263.795 482.605 263.124 482.592 262.45C482.592 261.756 482.499 261.061 482.313 260.466C482.127 259.969 481.848 259.573 481.476 259.275C481.166 258.981 480.774 258.807 480.361 258.779C479.915 258.784 479.486 258.96 479.152 259.275C478.78 259.573 478.501 259.969 478.315 260.565C478.118 261.205 478.023 261.876 478.036 262.55C478.036 263.244 478.129 263.939 478.315 264.534C478.501 265.031 478.78 265.527 479.152 265.725C479.431 266.023 479.896 266.221 480.361 266.221Z" fill="white"/>
</g>
<g clip-path="url(#clip4_61_483)">
<path d="M613.55 105H523.449C511.603 105 502 115.745 502 129V272C502 285.255 511.603 296 523.449 296H613.55C625.396 296 635 285.255 635 272V129C635 115.745 625.396 105 613.55 105Z" fill="#28A263"/>
<path fill-rule="evenodd" clip-rule="evenodd" d="M568.541 130.437C560.554 130.437 554.079 138.623 554.079 148.718C554.079 158.814 560.554 166.999 568.541 166.999C576.529 166.999 583.004 158.814 583.004 148.718C583.004 138.623 576.529 130.437 568.541 130.437ZM552.013 148.719C552.013 137.181 559.413 127.828 568.542 127.828C577.671 127.828 585.071 137.181 585.071 148.719C585.071 160.258 577.671 169.612 568.542 169.612C559.414 169.612 552.013 160.258 552.013 148.719ZM564.493 142.201C565.203 141.352 566.144 140.881 567.122 140.884H567.51V135.66H569.575V140.884H570.005C570.74 140.921 571.452 141.225 572.055 141.76L572.899 142.514L571.707 144.647L570.864 143.894C570.591 143.654 570.27 143.515 569.938 143.495H567.121C566.66 143.495 566.228 143.716 565.916 144.091C565.768 144.266 565.65 144.477 565.568 144.711C565.487 144.945 565.444 145.198 565.443 145.454C565.443 145.953 565.606 146.444 565.916 146.817C566.228 147.192 566.66 147.413 567.121 147.413H569.962C570.94 147.413 571.886 147.88 572.592 148.73C572.943 149.148 573.223 149.652 573.414 150.211C573.606 150.771 573.706 151.373 573.707 151.983C573.706 152.593 573.606 153.195 573.414 153.755C573.223 154.314 572.943 154.818 572.592 155.236C571.882 156.085 570.94 156.556 569.962 156.553H569.575V161.777H567.509V156.553H567.079C566.343 156.516 565.631 156.212 565.028 155.677L564.185 154.923L565.376 152.79L566.219 153.543C566.484 153.778 566.806 153.92 567.146 153.942H569.962C570.423 153.942 570.856 153.722 571.167 153.346C571.477 152.973 571.64 152.481 571.64 151.983C571.64 151.485 571.477 150.993 571.167 150.62C570.841 150.234 570.41 150.021 569.962 150.024H567.121C566.143 150.028 565.202 149.556 564.491 148.708C564.14 148.289 563.861 147.785 563.669 147.226C563.477 146.666 563.377 146.064 563.376 145.454C563.376 144.221 563.784 143.051 564.491 142.201H564.493Z" fill="white"/>
<path d="M532.724 230.892H534.795V227.805C538.937 227.613 541.52 225.518 541.52 222.266C541.52 219.454 539.704 217.442 536.483 216.505L534.795 216.009V208.237C536.892 208.76 538.579 210.469 538.886 212.564H541.136C540.778 209.201 538.042 206.555 534.795 206.087V203H532.724V206.059C528.914 206.363 526.562 208.512 526.562 211.875C526.562 214.576 528.352 216.395 531.931 217.332L532.724 217.553V225.628C530.244 225.104 528.608 223.285 528.352 220.584H526C526.383 224.581 528.94 227.227 532.724 227.75V230.892ZM528.71 211.792C528.71 209.67 530.269 208.319 532.724 208.099V215.403C530.014 214.548 528.71 213.363 528.71 211.792ZM534.795 225.766V218.104L535.358 218.242C538.145 218.986 539.423 220.198 539.423 222.018C539.423 224.222 537.633 225.628 534.795 225.766ZM543.379 222.872H552.149V227.42H554.245V222.872H557.288V220.695H554.245V214.493H552.149V220.695H545.731L551.637 206.418H549.285L543.379 220.97V222.872ZM558.704 231.333H560.085L561.543 224.195H558.704V231.333ZM569.748 227.833C573.788 227.833 576.626 224.746 576.626 220.336C576.626 215.899 574.044 212.784 570.362 212.784C568.419 212.784 566.706 213.694 565.683 215.1L566.731 208.595H575.578V206.418H565.044L563.382 217.938L565.402 218.324C566.373 216.037 567.856 214.879 569.851 214.879C572.689 214.879 574.504 217.112 574.504 220.336C574.504 223.506 572.561 225.766 569.748 225.766C567.14 225.766 565.325 223.809 565.325 221.053H563.279C563.382 225.049 566.041 227.833 569.748 227.833ZM586.522 227.833C590.69 227.833 593.323 225.049 593.323 220.557C593.323 216.119 590.741 213.336 586.624 213.336C584.093 213.336 581.843 214.824 581.025 216.974C581.408 211.213 583.454 208.044 586.803 208.044C589.079 208.044 590.613 209.367 590.971 211.627H593.17C592.582 208.154 590.204 206.004 586.803 206.004C581.997 206.004 579.235 209.918 579.235 216.974C579.235 223.947 581.869 227.833 586.522 227.833ZM581.69 220.557C581.69 217.525 583.633 215.375 586.42 215.375C589.232 215.375 591.201 217.525 591.201 220.557C591.201 223.644 589.232 225.821 586.42 225.821C583.633 225.821 581.69 223.644 581.69 220.557ZM603.457 227.833C608.085 227.833 611 223.644 611 216.891C611 210.194 608.085 206.004 603.457 206.004C598.854 206.004 595.94 210.221 595.94 216.974C595.94 223.671 598.854 227.833 603.457 227.833ZM598.036 216.974C598.036 211.544 600.133 208.154 603.457 208.154C606.806 208.154 608.928 211.517 608.928 216.891C608.928 222.293 606.806 225.656 603.457 225.656C600.133 225.656 598.036 222.321 598.036 216.974ZM549.119 265.809H550.61L548.325 261.955C549.403 261.497 550.065 260.489 550.065 259.149C550.065 257.311 548.823 256.087 546.964 256.087H543.52V265.809H544.774V262.211H547.166L549.119 265.809ZM544.774 260.947V257.337H546.964C548.089 257.337 548.834 258.064 548.834 259.149C548.834 260.234 548.089 260.947 546.965 260.947H544.774ZM554.442 266C555.98 266 557.259 264.903 557.46 263.513H556.229C556.016 264.291 555.294 264.814 554.442 264.814C553.223 264.814 552.442 263.971 552.347 262.607H557.531V262.364C557.531 259.825 556.004 258.625 554.335 258.625C552.417 258.625 551.175 260.234 551.175 262.313C551.175 264.546 552.477 266 554.442 266ZM552.417 261.522C552.655 260.489 553.364 259.8 554.335 259.8C555.353 259.8 556.075 260.476 556.229 261.522H552.417ZM560.65 265.809H562.224L564.709 258.817H563.468L561.431 264.763L559.407 258.817H558.176L560.65 265.809ZM568.533 266C570.072 266 571.35 264.903 571.551 263.513H570.32C570.107 264.291 569.385 264.814 568.533 264.814C567.314 264.814 566.533 263.971 566.438 262.607H571.622V262.364C571.622 259.825 570.095 258.625 568.426 258.625C566.508 258.625 565.266 260.234 565.266 262.313C565.266 264.546 566.568 266 568.533 266ZM566.508 261.522C566.746 260.489 567.455 259.8 568.426 259.8C569.444 259.8 570.166 260.476 570.32 261.522H566.508ZM577.885 261.968V265.809H579.093V261.841C579.093 259.864 578.052 258.625 576.417 258.625C575.518 258.625 574.784 259.008 574.31 259.646V258.817H573.103V265.809H574.31V262.083C574.31 260.641 574.997 259.8 576.146 259.8C577.223 259.8 577.885 260.628 577.885 261.968ZM581.863 262.657V258.817H580.656V262.785C580.656 264.763 581.697 266 583.332 266C584.23 266 584.964 265.618 585.438 264.979V265.809H586.645V258.817H585.438V262.543C585.438 263.984 584.752 264.827 583.603 264.827C582.525 264.827 581.863 263.997 581.863 262.657ZM591.39 266C592.929 266 594.207 264.903 594.408 263.513H593.177C592.965 264.291 592.242 264.814 591.39 264.814C590.171 264.814 589.39 263.971 589.295 262.607H594.479V262.364C594.479 259.825 592.953 258.625 591.283 258.625C589.366 258.625 588.124 260.234 588.124 262.313C588.124 264.546 589.425 266 591.39 266ZM589.366 261.522C589.603 260.489 590.313 259.8 591.283 259.8C592.302 259.8 593.023 260.476 593.177 261.522H589.366Z" fill="white"/>
</g>
<path d="M53.494 393.789C53.494 394.656 53.286 395.462 52.87 396.207C52.454 396.952 51.8213 397.559 50.972 398.027C50.1227 398.495 49.074 398.729 47.826 398.729C46.6127 398.729 45.5293 398.512 44.576 398.079C43.64 397.628 42.886 397.022 42.314 396.259C41.7593 395.479 41.4387 394.595 41.352 393.607H43.874C43.926 394.127 44.0993 394.638 44.394 395.141C44.706 395.626 45.1393 396.034 45.694 396.363C46.266 396.675 46.9507 396.831 47.748 396.831C48.788 396.831 49.5853 396.554 50.14 395.999C50.6947 395.444 50.972 394.734 50.972 393.867C50.972 393.122 50.7727 392.515 50.374 392.047C49.9927 391.579 49.516 391.215 48.944 390.955C48.372 390.678 47.592 390.383 46.604 390.071C45.4427 389.69 44.5067 389.334 43.796 389.005C43.1027 388.658 42.5047 388.147 42.002 387.471C41.5167 386.795 41.274 385.902 41.274 384.793C41.274 383.84 41.4993 382.999 41.95 382.271C42.418 381.543 43.0767 380.98 43.926 380.581C44.7927 380.182 45.8067 379.983 46.968 379.983C48.7707 379.983 50.2007 380.425 51.258 381.309C52.3153 382.176 52.9307 383.285 53.104 384.637H50.556C50.4173 383.909 50.0447 383.268 49.438 382.713C48.8313 382.158 48.008 381.881 46.968 381.881C46.0147 381.881 45.252 382.132 44.68 382.635C44.108 383.12 43.822 383.814 43.822 384.715C43.822 385.426 44.004 386.006 44.368 386.457C44.7493 386.89 45.2173 387.237 45.772 387.497C46.3267 387.74 47.0893 388.017 48.06 388.329C49.2387 388.71 50.1833 389.074 50.894 389.421C51.622 389.768 52.2373 390.296 52.74 391.007C53.2427 391.7 53.494 392.628 53.494 393.789ZM69.5253 390.617C69.5253 391.12 69.4907 391.553 69.4213 391.917H58.0073C58.0593 393.546 58.5187 394.768 59.3853 395.583C60.2693 396.398 61.344 396.805 62.6093 396.805C63.7533 396.805 64.7067 396.519 65.4693 395.947C66.2493 395.358 66.726 394.578 66.8993 393.607H69.4213C69.248 394.595 68.858 395.479 68.2513 396.259C67.662 397.039 66.8907 397.646 65.9373 398.079C64.984 398.512 63.9093 398.729 62.7133 398.729C61.344 398.729 60.1307 398.434 59.0733 397.845C58.016 397.256 57.184 396.415 56.5773 395.323C55.988 394.214 55.6933 392.914 55.6933 391.423C55.6933 389.932 55.988 388.632 56.5773 387.523C57.184 386.414 58.016 385.564 59.0733 384.975C60.1307 384.386 61.344 384.091 62.7133 384.091C64.1 384.091 65.3047 384.386 66.3273 384.975C67.3673 385.564 68.156 386.353 68.6933 387.341C69.248 388.329 69.5253 389.421 69.5253 390.617ZM67.1333 390.773C67.1853 389.716 67.012 388.832 66.6133 388.121C66.2147 387.41 65.6687 386.882 64.9753 386.535C64.282 386.188 63.528 386.015 62.7133 386.015C61.4133 386.015 60.3213 386.422 59.4373 387.237C58.5533 388.034 58.0767 389.213 58.0073 390.773H67.1333ZM74.706 379.307V398.547H72.34V379.307H74.706ZM80.5959 379.307V398.547H78.2299V379.307H80.5959ZM98.1416 384.091C99.407 384.091 100.534 384.386 101.522 384.975C102.51 385.564 103.281 386.414 103.836 387.523C104.408 388.632 104.694 389.932 104.694 391.423C104.694 392.914 104.408 394.214 103.836 395.323C103.281 396.415 102.51 397.256 101.522 397.845C100.534 398.434 99.407 398.729 98.1416 398.729C96.755 398.729 95.5763 398.382 94.6056 397.689C93.6523 396.978 92.9936 396.051 92.6296 394.907V405.307H90.2636V384.273H92.6296V387.913C92.9936 386.769 93.6523 385.85 94.6056 385.157C95.5763 384.446 96.755 384.091 98.1416 384.091ZM97.4656 386.197C96.547 386.197 95.715 386.414 94.9696 386.847C94.2243 387.263 93.6436 387.87 93.2276 388.667C92.8116 389.464 92.6036 390.383 92.6036 391.423C92.6036 392.463 92.8116 393.382 93.2276 394.179C93.6436 394.959 94.2243 395.566 94.9696 395.999C95.715 396.432 96.547 396.649 97.4656 396.649C98.939 396.649 100.109 396.19 100.976 395.271C101.86 394.335 102.302 393.052 102.302 391.423C102.302 389.794 101.86 388.52 100.976 387.601C100.109 386.665 98.939 386.197 97.4656 386.197ZM109.869 387.159C110.337 386.171 111.022 385.408 111.923 384.871C112.824 384.316 113.899 384.039 115.147 384.039V386.613H114.419C113.084 386.613 111.992 386.96 111.143 387.653C110.294 388.329 109.869 389.456 109.869 391.033V398.547H107.503V384.273H109.869V387.159ZM123.676 384.091C125.045 384.091 126.267 384.386 127.342 384.975C128.434 385.564 129.283 386.414 129.89 387.523C130.514 388.632 130.826 389.932 130.826 391.423C130.826 392.914 130.514 394.214 129.89 395.323C129.283 396.415 128.434 397.256 127.342 397.845C126.267 398.434 125.045 398.729 123.676 398.729C122.306 398.729 121.076 398.434 119.984 397.845C118.909 397.256 118.06 396.415 117.436 395.323C116.812 394.214 116.5 392.914 116.5 391.423C116.5 389.932 116.812 388.632 117.436 387.523C118.06 386.414 118.909 385.564 119.984 384.975C121.076 384.386 122.306 384.091 123.676 384.091ZM123.676 386.171C122.826 386.171 122.038 386.362 121.31 386.743C120.599 387.124 120.018 387.714 119.568 388.511C119.134 389.291 118.918 390.262 118.918 391.423C118.918 392.567 119.134 393.538 119.568 394.335C120.018 395.115 120.599 395.696 121.31 396.077C122.038 396.458 122.826 396.649 123.676 396.649C124.525 396.649 125.305 396.458 126.016 396.077C126.744 395.696 127.324 395.115 127.758 394.335C128.208 393.538 128.434 392.567 128.434 391.423C128.434 390.262 128.208 389.291 127.758 388.511C127.324 387.714 126.744 387.124 126.016 386.743C125.305 386.362 124.525 386.171 123.676 386.171ZM139.479 384.091C140.865 384.091 142.035 384.438 142.989 385.131C143.959 385.824 144.635 386.752 145.017 387.913V379.307H147.383V398.547H145.017V394.907C144.635 396.068 143.959 396.996 142.989 397.689C142.035 398.382 140.865 398.729 139.479 398.729C138.213 398.729 137.087 398.434 136.099 397.845C135.111 397.256 134.331 396.415 133.759 395.323C133.204 394.214 132.927 392.914 132.927 391.423C132.927 389.932 133.204 388.632 133.759 387.523C134.331 386.414 135.111 385.564 136.099 384.975C137.087 384.386 138.213 384.091 139.479 384.091ZM140.155 386.197C138.699 386.197 137.529 386.665 136.645 387.601C135.778 388.52 135.345 389.794 135.345 391.423C135.345 393.052 135.778 394.335 136.645 395.271C137.529 396.19 138.699 396.649 140.155 396.649C141.091 396.649 141.923 396.432 142.651 395.999C143.396 395.566 143.977 394.959 144.393 394.179C144.809 393.382 145.017 392.463 145.017 391.423C145.017 390.383 144.809 389.464 144.393 388.667C143.977 387.87 143.396 387.263 142.651 386.847C141.923 386.414 141.091 386.197 140.155 386.197ZM163.556 384.273V398.547H161.19V395.193C160.826 396.354 160.176 397.247 159.24 397.871C158.322 398.478 157.247 398.781 156.016 398.781C154.37 398.781 153.035 398.252 152.012 397.195C150.99 396.12 150.478 394.586 150.478 392.593V384.273H152.844V392.359C152.844 393.78 153.208 394.881 153.936 395.661C154.664 396.424 155.652 396.805 156.9 396.805C158.2 396.805 159.24 396.389 160.02 395.557C160.8 394.708 161.19 393.477 161.19 391.865V384.273H163.556ZM173.385 384.091C175.205 384.091 176.713 384.576 177.909 385.547C179.105 386.518 179.841 387.818 180.119 389.447H177.623C177.449 388.424 176.973 387.627 176.193 387.055C175.43 386.466 174.477 386.171 173.333 386.171C172.501 386.171 171.738 386.362 171.045 386.743C170.369 387.124 169.823 387.714 169.407 388.511C168.991 389.291 168.783 390.262 168.783 391.423C168.783 392.584 168.991 393.564 169.407 394.361C169.823 395.141 170.369 395.722 171.045 396.103C171.738 396.484 172.501 396.675 173.333 396.675C174.477 396.675 175.43 396.38 176.193 395.791C176.973 395.202 177.449 394.396 177.623 393.373H180.119C179.841 395.02 179.105 396.328 177.909 397.299C176.713 398.252 175.205 398.729 173.385 398.729C172.015 398.729 170.802 398.434 169.745 397.845C168.687 397.256 167.855 396.415 167.249 395.323C166.659 394.214 166.365 392.914 166.365 391.423C166.365 389.932 166.659 388.632 167.249 387.523C167.855 386.414 168.687 385.564 169.745 384.975C170.802 384.386 172.015 384.091 173.385 384.091ZM189.747 396.467V398.547H187.979C186.523 398.547 185.431 398.2 184.703 397.507C183.993 396.814 183.637 395.652 183.637 394.023V386.327H181.505V384.273H183.637V380.711H186.029V384.273H189.721V386.327H186.029V394.075C186.029 394.994 186.194 395.626 186.523 395.973C186.87 396.302 187.459 396.467 188.291 396.467H189.747ZM196.826 384.091C198.438 384.091 199.73 384.516 200.7 385.365C201.688 386.197 202.286 387.324 202.494 388.745H200.232C200.128 387.896 199.773 387.202 199.166 386.665C198.577 386.11 197.78 385.833 196.774 385.833C195.925 385.833 195.258 386.041 194.772 386.457C194.304 386.856 194.07 387.402 194.07 388.095C194.07 388.615 194.226 389.04 194.538 389.369C194.868 389.681 195.266 389.924 195.734 390.097C196.22 390.253 196.878 390.426 197.71 390.617C198.768 390.86 199.617 391.111 200.258 391.371C200.917 391.614 201.472 392.012 201.922 392.567C202.39 393.122 202.624 393.867 202.624 394.803C202.624 395.964 202.182 396.909 201.298 397.637C200.432 398.365 199.27 398.729 197.814 398.729C196.116 398.729 194.729 398.322 193.654 397.507C192.58 396.692 191.947 395.557 191.756 394.101H194.044C194.131 394.968 194.504 395.67 195.162 396.207C195.838 396.744 196.722 397.013 197.814 397.013C198.629 397.013 199.262 396.805 199.712 396.389C200.18 395.973 200.414 395.427 200.414 394.751C200.414 394.196 200.25 393.754 199.92 393.425C199.591 393.096 199.184 392.844 198.698 392.671C198.213 392.498 197.546 392.316 196.696 392.125C195.639 391.882 194.79 391.64 194.148 391.397C193.524 391.154 192.987 390.773 192.536 390.253C192.103 389.716 191.886 388.996 191.886 388.095C191.886 386.899 192.328 385.937 193.212 385.209C194.096 384.464 195.301 384.091 196.826 384.091ZM217.5 384.091C218.887 384.091 220.057 384.438 221.01 385.131C221.981 385.824 222.657 386.752 223.038 387.913V384.273H225.404V398.547H223.038V394.907C222.657 396.068 221.981 396.996 221.01 397.689C220.057 398.382 218.887 398.729 217.5 398.729C216.235 398.729 215.108 398.434 214.12 397.845C213.132 397.256 212.352 396.415 211.78 395.323C211.225 394.214 210.948 392.914 210.948 391.423C210.948 389.932 211.225 388.632 211.78 387.523C212.352 386.414 213.132 385.564 214.12 384.975C215.108 384.386 216.235 384.091 217.5 384.091ZM218.176 386.197C216.72 386.197 215.55 386.665 214.666 387.601C213.799 388.52 213.366 389.794 213.366 391.423C213.366 393.052 213.799 394.335 214.666 395.271C215.55 396.19 216.72 396.649 218.176 396.649C219.112 396.649 219.944 396.432 220.672 395.999C221.417 395.566 221.998 394.959 222.414 394.179C222.83 393.382 223.038 392.463 223.038 391.423C223.038 390.383 222.83 389.464 222.414 388.667C221.998 387.87 221.417 387.263 220.672 386.847C219.944 386.414 219.112 386.197 218.176 386.197ZM236.403 384.039C238.067 384.039 239.411 384.576 240.433 385.651C241.456 386.708 241.967 388.242 241.967 390.253V398.547H239.601V390.461C239.601 389.04 239.237 387.948 238.509 387.185C237.781 386.422 236.793 386.041 235.545 386.041C234.245 386.041 233.205 386.466 232.425 387.315C231.645 388.147 231.255 389.369 231.255 390.981V398.547H228.889V384.273H231.255V387.653C231.619 386.492 232.261 385.599 233.179 384.975C234.115 384.351 235.19 384.039 236.403 384.039ZM251.166 384.091C252.553 384.091 253.723 384.438 254.676 385.131C255.647 385.824 256.323 386.752 256.704 387.913V379.307H259.07V398.547H256.704V394.907C256.323 396.068 255.647 396.996 254.676 397.689C253.723 398.382 252.553 398.729 251.166 398.729C249.901 398.729 248.774 398.434 247.786 397.845C246.798 397.256 246.018 396.415 245.446 395.323C244.892 394.214 244.614 392.914 244.614 391.423C244.614 389.932 244.892 388.632 245.446 387.523C246.018 386.414 246.798 385.564 247.786 384.975C248.774 384.386 249.901 384.091 251.166 384.091ZM251.842 386.197C250.386 386.197 249.216 386.665 248.332 387.601C247.466 388.52 247.032 389.794 247.032 391.423C247.032 393.052 247.466 394.335 248.332 395.271C249.216 396.19 250.386 396.649 251.842 396.649C252.778 396.649 253.61 396.432 254.338 395.999C255.084 395.566 255.664 394.959 256.08 394.179C256.496 393.382 256.704 392.463 256.704 391.423C256.704 390.383 256.496 389.464 256.08 388.667C255.664 387.87 255.084 387.263 254.338 386.847C253.61 386.414 252.778 386.197 251.842 386.197ZM275.018 384.091C276.838 384.091 278.346 384.576 279.542 385.547C280.738 386.518 281.474 387.818 281.752 389.447H279.256C279.082 388.424 278.606 387.627 277.826 387.055C277.063 386.466 276.11 386.171 274.966 386.171C274.134 386.171 273.371 386.362 272.678 386.743C272.002 387.124 271.456 387.714 271.04 388.511C270.624 389.291 270.416 390.262 270.416 391.423C270.416 392.584 270.624 393.564 271.04 394.361C271.456 395.141 272.002 395.722 272.678 396.103C273.371 396.484 274.134 396.675 274.966 396.675C276.11 396.675 277.063 396.38 277.826 395.791C278.606 395.202 279.082 394.396 279.256 393.373H281.752C281.474 395.02 280.738 396.328 279.542 397.299C278.346 398.252 276.838 398.729 275.018 398.729C273.648 398.729 272.435 398.434 271.378 397.845C270.32 397.256 269.488 396.415 268.882 395.323C268.292 394.214 267.998 392.914 267.998 391.423C267.998 389.932 268.292 388.632 268.882 387.523C269.488 386.414 270.32 385.564 271.378 384.975C272.435 384.386 273.648 384.091 275.018 384.091ZM291.042 384.091C292.412 384.091 293.634 384.386 294.708 384.975C295.8 385.564 296.65 386.414 297.256 387.523C297.88 388.632 298.192 389.932 298.192 391.423C298.192 392.914 297.88 394.214 297.256 395.323C296.65 396.415 295.8 397.256 294.708 397.845C293.634 398.434 292.412 398.729 291.042 398.729C289.673 398.729 288.442 398.434 287.35 397.845C286.276 397.256 285.426 396.415 284.802 395.323C284.178 394.214 283.866 392.914 283.866 391.423C283.866 389.932 284.178 388.632 284.802 387.523C285.426 386.414 286.276 385.564 287.35 384.975C288.442 384.386 289.673 384.091 291.042 384.091ZM291.042 386.171C290.193 386.171 289.404 386.362 288.676 386.743C287.966 387.124 287.385 387.714 286.934 388.511C286.501 389.291 286.284 390.262 286.284 391.423C286.284 392.567 286.501 393.538 286.934 394.335C287.385 395.115 287.966 395.696 288.676 396.077C289.404 396.458 290.193 396.649 291.042 396.649C291.892 396.649 292.672 396.458 293.382 396.077C294.11 395.696 294.691 395.115 295.124 394.335C295.575 393.538 295.8 392.567 295.8 391.423C295.8 390.262 295.575 389.291 295.124 388.511C294.691 387.714 294.11 387.124 293.382 386.743C292.672 386.362 291.892 386.171 291.042 386.171ZM303.361 379.307V398.547H300.995V379.307H303.361ZM309.251 379.307V398.547H306.885V379.307H309.251ZM325.905 390.617C325.905 391.12 325.87 391.553 325.801 391.917H314.387C314.439 393.546 314.898 394.768 315.765 395.583C316.649 396.398 317.724 396.805 318.989 396.805C320.133 396.805 321.086 396.519 321.849 395.947C322.629 395.358 323.106 394.578 323.279 393.607H325.801C325.628 394.595 325.238 395.479 324.631 396.259C324.042 397.039 323.27 397.646 322.317 398.079C321.364 398.512 320.289 398.729 319.093 398.729C317.724 398.729 316.51 398.434 315.453 397.845C314.396 397.256 313.564 396.415 312.957 395.323C312.368 394.214 312.073 392.914 312.073 391.423C312.073 389.932 312.368 388.632 312.957 387.523C313.564 386.414 314.396 385.564 315.453 384.975C316.51 384.386 317.724 384.091 319.093 384.091C320.48 384.091 321.684 384.386 322.707 384.975C323.747 385.564 324.536 386.353 325.073 387.341C325.628 388.329 325.905 389.421 325.905 390.617ZM323.513 390.773C323.565 389.716 323.392 388.832 322.993 388.121C322.594 387.41 322.048 386.882 321.355 386.535C320.662 386.188 319.908 386.015 319.093 386.015C317.793 386.015 316.701 386.422 315.817 387.237C314.933 388.034 314.456 389.213 314.387 390.773H323.513ZM335.038 384.091C336.858 384.091 338.366 384.576 339.562 385.547C340.758 386.518 341.494 387.818 341.772 389.447H339.276C339.102 388.424 338.626 387.627 337.846 387.055C337.083 386.466 336.13 386.171 334.986 386.171C334.154 386.171 333.391 386.362 332.698 386.743C332.022 387.124 331.476 387.714 331.06 388.511C330.644 389.291 330.436 390.262 330.436 391.423C330.436 392.584 330.644 393.564 331.06 394.361C331.476 395.141 332.022 395.722 332.698 396.103C333.391 396.484 334.154 396.675 334.986 396.675C336.13 396.675 337.083 396.38 337.846 395.791C338.626 395.202 339.102 394.396 339.276 393.373H341.772C341.494 395.02 340.758 396.328 339.562 397.299C338.366 398.252 336.858 398.729 335.038 398.729C333.668 398.729 332.455 398.434 331.398 397.845C330.34 397.256 329.508 396.415 328.902 395.323C328.312 394.214 328.018 392.914 328.018 391.423C328.018 389.932 328.312 388.632 328.902 387.523C329.508 386.414 330.34 385.564 331.398 384.975C332.455 384.386 333.668 384.091 335.038 384.091ZM351.4 396.467V398.547H349.632C348.176 398.547 347.084 398.2 346.356 397.507C345.645 396.814 345.29 395.652 345.29 394.023V386.327H343.158V384.273H345.29V380.711H347.682V384.273H351.374V386.327H347.682V394.075C347.682 394.994 347.847 395.626 348.176 395.973C348.523 396.302 349.112 396.467 349.944 396.467H351.4ZM368.029 384.091C369.295 384.091 370.421 384.386 371.409 384.975C372.397 385.564 373.169 386.414 373.723 387.523C374.295 388.632 374.581 389.932 374.581 391.423C374.581 392.914 374.295 394.214 373.723 395.323C373.169 396.415 372.397 397.256 371.409 397.845C370.421 398.434 369.295 398.729 368.029 398.729C366.643 398.729 365.464 398.382 364.493 397.689C363.54 396.978 362.881 396.051 362.517 394.907V405.307H360.151V384.273H362.517V387.913C362.881 386.769 363.54 385.85 364.493 385.157C365.464 384.446 366.643 384.091 368.029 384.091ZM367.353 386.197C366.435 386.197 365.603 386.414 364.857 386.847C364.112 387.263 363.531 387.87 363.115 388.667C362.699 389.464 362.491 390.383 362.491 391.423C362.491 392.463 362.699 393.382 363.115 394.179C363.531 394.959 364.112 395.566 364.857 395.999C365.603 396.432 366.435 396.649 367.353 396.649C368.827 396.649 369.997 396.19 370.863 395.271C371.747 394.335 372.189 393.052 372.189 391.423C372.189 389.794 371.747 388.52 370.863 387.601C369.997 386.665 368.827 386.197 367.353 386.197ZM383.241 384.091C384.627 384.091 385.797 384.438 386.751 385.131C387.721 385.824 388.397 386.752 388.779 387.913V384.273H391.145V398.547H388.779V394.907C388.397 396.068 387.721 396.996 386.751 397.689C385.797 398.382 384.627 398.729 383.241 398.729C381.975 398.729 380.849 398.434 379.861 397.845C378.873 397.256 378.093 396.415 377.521 395.323C376.966 394.214 376.689 392.914 376.689 391.423C376.689 389.932 376.966 388.632 377.521 387.523C378.093 386.414 378.873 385.564 379.861 384.975C380.849 384.386 381.975 384.091 383.241 384.091ZM383.917 386.197C382.461 386.197 381.291 386.665 380.407 387.601C379.54 388.52 379.107 389.794 379.107 391.423C379.107 393.052 379.54 394.335 380.407 395.271C381.291 396.19 382.461 396.649 383.917 396.649C384.853 396.649 385.685 396.432 386.413 395.999C387.158 395.566 387.739 394.959 388.155 394.179C388.571 393.382 388.779 392.463 388.779 391.423C388.779 390.383 388.571 389.464 388.155 388.667C387.739 387.87 387.158 387.263 386.413 386.847C385.685 386.414 384.853 386.197 383.917 386.197ZM395.618 384.273L400.246 395.505L404.536 384.273H407.162L398.686 405.307H396.008L398.972 398.313L392.966 384.273H395.618ZM426.601 384.039C428.265 384.039 429.6 384.576 430.605 385.651C431.628 386.708 432.139 388.242 432.139 390.253V398.547H429.773V390.461C429.773 389.057 429.427 387.982 428.733 387.237C428.057 386.492 427.121 386.119 425.925 386.119C424.677 386.119 423.672 386.535 422.909 387.367C422.164 388.182 421.791 389.386 421.791 390.981V398.547H419.425V390.461C419.425 389.057 419.079 387.982 418.385 387.237C417.692 386.492 416.756 386.119 415.577 386.119C414.312 386.119 413.298 386.535 412.535 387.367C411.79 388.182 411.417 389.386 411.417 390.981V398.547H409.051V384.273H411.417V387.523C411.764 386.396 412.379 385.538 413.263 384.949C414.165 384.342 415.196 384.039 416.357 384.039C417.571 384.039 418.619 384.351 419.503 384.975C420.405 385.582 421.046 386.483 421.427 387.679C421.826 386.518 422.493 385.625 423.429 385.001C424.365 384.36 425.423 384.039 426.601 384.039ZM448.663 390.617C448.663 391.12 448.628 391.553 448.559 391.917H437.145C437.197 393.546 437.656 394.768 438.523 395.583C439.407 396.398 440.482 396.805 441.747 396.805C442.891 396.805 443.844 396.519 444.607 395.947C445.387 395.358 445.864 394.578 446.037 393.607H448.559C448.386 394.595 447.996 395.479 447.389 396.259C446.8 397.039 446.028 397.646 445.075 398.079C444.122 398.512 443.047 398.729 441.851 398.729C440.482 398.729 439.268 398.434 438.211 397.845C437.154 397.256 436.322 396.415 435.715 395.323C435.126 394.214 434.831 392.914 434.831 391.423C434.831 389.932 435.126 388.632 435.715 387.523C436.322 386.414 437.154 385.564 438.211 384.975C439.268 384.386 440.482 384.091 441.851 384.091C443.238 384.091 444.442 384.386 445.465 384.975C446.505 385.564 447.294 386.353 447.831 387.341C448.386 388.329 448.663 389.421 448.663 390.617ZM446.271 390.773C446.323 389.716 446.15 388.832 445.751 388.121C445.352 387.41 444.806 386.882 444.113 386.535C443.42 386.188 442.666 386.015 441.851 386.015C440.551 386.015 439.459 386.422 438.575 387.237C437.691 388.034 437.214 389.213 437.145 390.773H446.271ZM458.992 384.039C460.656 384.039 461.999 384.576 463.022 385.651C464.044 386.708 464.556 388.242 464.556 390.253V398.547H462.19V390.461C462.19 389.04 461.826 387.948 461.098 387.185C460.37 386.422 459.382 386.041 458.134 386.041C456.834 386.041 455.794 386.466 455.014 387.315C454.234 388.147 453.844 389.369 453.844 390.981V398.547H451.478V384.273H453.844V387.653C454.208 386.492 454.849 385.599 455.768 384.975C456.704 384.351 457.778 384.039 458.992 384.039ZM474.717 396.467V398.547H472.949C471.493 398.547 470.401 398.2 469.673 397.507C468.962 396.814 468.607 395.652 468.607 394.023V386.327H466.475V384.273H468.607V380.711H470.999V384.273H474.691V386.327H470.999V394.075C470.999 394.994 471.163 395.626 471.493 395.973C471.839 396.302 472.429 396.467 473.261 396.467H474.717ZM481.796 384.091C483.408 384.091 484.699 384.516 485.67 385.365C486.658 386.197 487.256 387.324 487.464 388.745H485.202C485.098 387.896 484.743 387.202 484.136 386.665C483.547 386.11 482.749 385.833 481.744 385.833C480.895 385.833 480.227 386.041 479.742 386.457C479.274 386.856 479.04 387.402 479.04 388.095C479.04 388.615 479.196 389.04 479.508 389.369C479.837 389.681 480.236 389.924 480.704 390.097C481.189 390.253 481.848 390.426 482.68 390.617C483.737 390.86 484.587 391.111 485.228 391.371C485.887 391.614 486.441 392.012 486.892 392.567C487.36 393.122 487.594 393.867 487.594 394.803C487.594 395.964 487.152 396.909 486.268 397.637C485.401 398.365 484.24 398.729 482.784 398.729C481.085 398.729 479.699 398.322 478.624 397.507C477.549 396.692 476.917 395.557 476.726 394.101H479.014C479.101 394.968 479.473 395.67 480.132 396.207C480.808 396.744 481.692 397.013 482.784 397.013C483.599 397.013 484.231 396.805 484.682 396.389C485.15 395.973 485.384 395.427 485.384 394.751C485.384 394.196 485.219 393.754 484.89 393.425C484.561 393.096 484.153 392.844 483.668 392.671C483.183 392.498 482.515 392.316 481.666 392.125C480.609 391.882 479.759 391.64 479.118 391.397C478.494 391.154 477.957 390.773 477.506 390.253C477.073 389.716 476.856 388.996 476.856 388.095C476.856 386.899 477.298 385.937 478.182 385.209C479.066 384.464 480.271 384.091 481.796 384.091ZM492.218 395.765V398.547H489.358V395.765H492.218ZM503.149 380.217V398.547H500.783V380.217H503.149ZM513.485 396.467V398.547H511.717C510.261 398.547 509.169 398.2 508.441 397.507C507.73 396.814 507.375 395.652 507.375 394.023V386.327H505.243V384.273H507.375V380.711H509.767V384.273H513.459V386.327H509.767V394.075C509.767 394.994 509.931 395.626 510.261 395.973C510.607 396.302 511.197 396.467 512.029 396.467H513.485ZM517.574 378.059C517.765 378.891 517.86 379.688 517.86 380.451C517.86 381.422 517.635 382.158 517.184 382.661C516.751 383.146 516.101 383.389 515.234 383.389V382.323C515.685 382.323 516.005 382.21 516.196 381.985C516.387 381.742 516.482 381.378 516.482 380.893V380.295H515.182V378.059H517.574ZM524.905 384.091C526.517 384.091 527.808 384.516 528.779 385.365C529.767 386.197 530.365 387.324 530.573 388.745H528.311C528.207 387.896 527.852 387.202 527.245 386.665C526.656 386.11 525.858 385.833 524.853 385.833C524.004 385.833 523.336 386.041 522.851 386.457C522.383 386.856 522.149 387.402 522.149 388.095C522.149 388.615 522.305 389.04 522.617 389.369C522.946 389.681 523.345 389.924 523.813 390.097C524.298 390.253 524.957 390.426 525.789 390.617C526.846 390.86 527.696 391.111 528.337 391.371C528.996 391.614 529.55 392.012 530.001 392.567C530.469 393.122 530.703 393.867 530.703 394.803C530.703 395.964 530.261 396.909 529.377 397.637C528.51 398.365 527.349 398.729 525.893 398.729C524.194 398.729 522.808 398.322 521.733 397.507C520.658 396.692 520.026 395.557 519.835 394.101H522.123C522.21 394.968 522.582 395.67 523.241 396.207C523.917 396.744 524.801 397.013 525.893 397.013C526.708 397.013 527.34 396.805 527.791 396.389C528.259 395.973 528.493 395.427 528.493 394.751C528.493 394.196 528.328 393.754 527.999 393.425C527.67 393.096 527.262 392.844 526.777 392.671C526.292 392.498 525.624 392.316 524.775 392.125C523.718 391.882 522.868 391.64 522.227 391.397C521.603 391.154 521.066 390.773 520.615 390.253C520.182 389.716 519.965 388.996 519.965 388.095C519.965 386.899 520.407 385.937 521.291 385.209C522.175 384.464 523.38 384.091 524.905 384.091ZM59.448 421.039C61.112 421.039 62.4467 421.576 63.452 422.651C64.4747 423.708 64.986 425.242 64.986 427.253V435.547H62.62V427.461C62.62 426.057 62.2733 424.982 61.58 424.237C60.904 423.492 59.968 423.119 58.772 423.119C57.524 423.119 56.5187 423.535 55.756 424.367C55.0107 425.182 54.638 426.386 54.638 427.981V435.547H52.272V427.461C52.272 426.057 51.9253 424.982 51.232 424.237C50.5387 423.492 49.6027 423.119 48.424 423.119C47.1587 423.119 46.1447 423.535 45.382 424.367C44.6367 425.182 44.264 426.386 44.264 427.981V435.547H41.898V421.273H44.264V424.523C44.6107 423.396 45.226 422.538 46.11 421.949C47.0113 421.342 48.0427 421.039 49.204 421.039C50.4173 421.039 51.466 421.351 52.35 421.975C53.2513 422.582 53.8927 423.483 54.274 424.679C54.6727 423.518 55.34 422.625 56.276 422.001C57.212 421.36 58.2693 421.039 59.448 421.039ZM74.8537 421.091C76.2231 421.091 77.4451 421.386 78.5197 421.975C79.6117 422.564 80.4611 423.414 81.0677 424.523C81.6917 425.632 82.0037 426.932 82.0037 428.423C82.0037 429.914 81.6917 431.214 81.0677 432.323C80.4611 433.415 79.6117 434.256 78.5197 434.845C77.4451 435.434 76.2231 435.729 74.8537 435.729C73.4844 435.729 72.2537 435.434 71.1617 434.845C70.0871 434.256 69.2377 433.415 68.6137 432.323C67.9897 431.214 67.6777 429.914 67.6777 428.423C67.6777 426.932 67.9897 425.632 68.6137 424.523C69.2377 423.414 70.0871 422.564 71.1617 421.975C72.2537 421.386 73.4844 421.091 74.8537 421.091ZM74.8537 423.171C74.0044 423.171 73.2157 423.362 72.4877 423.743C71.7771 424.124 71.1964 424.714 70.7457 425.511C70.3124 426.291 70.0957 427.262 70.0957 428.423C70.0957 429.567 70.3124 430.538 70.7457 431.335C71.1964 432.115 71.7771 432.696 72.4877 433.077C73.2157 433.458 74.0044 433.649 74.8537 433.649C75.7031 433.649 76.4831 433.458 77.1937 433.077C77.9217 432.696 78.5024 432.115 78.9357 431.335C79.3864 430.538 79.6117 429.567 79.6117 428.423C79.6117 427.262 79.3864 426.291 78.9357 425.511C78.5024 424.714 77.9217 424.124 77.1937 423.743C76.4831 423.362 75.7031 423.171 74.8537 423.171ZM92.3207 421.039C93.9847 421.039 95.3281 421.576 96.3507 422.651C97.3734 423.708 97.8847 425.242 97.8847 427.253V435.547H95.5187V427.461C95.5187 426.04 95.1547 424.948 94.4267 424.185C93.6987 423.422 92.7107 423.041 91.4627 423.041C90.1627 423.041 89.1227 423.466 88.3427 424.315C87.5627 425.147 87.1727 426.369 87.1727 427.981V435.547H84.8067V421.273H87.1727V424.653C87.5367 423.492 88.1781 422.599 89.0967 421.975C90.0327 421.351 91.1074 421.039 92.3207 421.039ZM114.364 427.617C114.364 428.12 114.329 428.553 114.26 428.917H102.846C102.898 430.546 103.357 431.768 104.224 432.583C105.108 433.398 106.182 433.805 107.448 433.805C108.592 433.805 109.545 433.519 110.308 432.947C111.088 432.358 111.564 431.578 111.738 430.607H114.26C114.086 431.595 113.696 432.479 113.09 433.259C112.5 434.039 111.729 434.646 110.776 435.079C109.822 435.512 108.748 435.729 107.552 435.729C106.182 435.729 104.969 435.434 103.912 434.845C102.854 434.256 102.022 433.415 101.416 432.323C100.826 431.214 100.532 429.914 100.532 428.423C100.532 426.932 100.826 425.632 101.416 424.523C102.022 423.414 102.854 422.564 103.912 421.975C104.969 421.386 106.182 421.091 107.552 421.091C108.938 421.091 110.143 421.386 111.166 421.975C112.206 422.564 112.994 423.353 113.532 424.341C114.086 425.329 114.364 426.421 114.364 427.617ZM111.972 427.773C112.024 426.716 111.85 425.832 111.452 425.121C111.053 424.41 110.507 423.882 109.814 423.535C109.12 423.188 108.366 423.015 107.552 423.015C106.252 423.015 105.16 423.422 104.276 424.237C103.392 425.034 102.915 426.213 102.846 427.773H111.972ZM123.99 433.467V435.547H122.222C120.766 435.547 119.674 435.2 118.946 434.507C118.236 433.814 117.88 432.652 117.88 431.023V423.327H115.748V421.273H117.88V417.711H120.272V421.273H123.964V423.327H120.272V431.075C120.272 431.994 120.437 432.626 120.766 432.973C121.113 433.302 121.702 433.467 122.534 433.467H123.99ZM126.182 417.087C126.182 416.654 126.329 416.307 126.624 416.047C126.918 415.77 127.308 415.631 127.794 415.631C128.279 415.631 128.669 415.77 128.964 416.047C129.258 416.307 129.406 416.654 129.406 417.087C129.406 417.52 129.258 417.876 128.964 418.153C128.669 418.413 128.279 418.543 127.794 418.543C127.308 418.543 126.918 418.413 126.624 418.153C126.329 417.876 126.182 417.52 126.182 417.087ZM128.964 421.273V435.547H126.598V421.273H128.964ZM133.866 433.545H141.51V435.547H131.266V433.649L138.546 423.275H131.474V421.273H141.25V423.197L133.866 433.545ZM149.661 421.091C151.048 421.091 152.218 421.438 153.171 422.131C154.142 422.824 154.818 423.752 155.199 424.913V421.273H157.565V435.547H155.199V431.907C154.818 433.068 154.142 433.996 153.171 434.689C152.218 435.382 151.048 435.729 149.661 435.729C148.396 435.729 147.269 435.434 146.281 434.845C145.293 434.256 144.513 433.415 143.941 432.323C143.386 431.214 143.109 429.914 143.109 428.423C143.109 426.932 143.386 425.632 143.941 424.523C144.513 423.414 145.293 422.564 146.281 421.975C147.269 421.386 148.396 421.091 149.661 421.091ZM150.337 423.197C148.881 423.197 147.711 423.665 146.827 424.601C145.96 425.52 145.527 426.794 145.527 428.423C145.527 430.052 145.96 431.335 146.827 432.271C147.711 433.19 148.881 433.649 150.337 433.649C151.273 433.649 152.105 433.432 152.833 432.999C153.578 432.566 154.159 431.959 154.575 431.179C154.991 430.382 155.199 429.463 155.199 428.423C155.199 427.383 154.991 426.464 154.575 425.667C154.159 424.87 153.578 424.263 152.833 423.847C152.105 423.414 151.273 423.197 150.337 423.197ZM167.863 433.467V435.547H166.095C164.639 435.547 163.547 435.2 162.819 434.507C162.108 433.814 161.753 432.652 161.753 431.023V423.327H159.621V421.273H161.753V417.711H164.145V421.273H167.837V423.327H164.145V431.075C164.145 431.994 164.309 432.626 164.639 432.973C164.985 433.302 165.575 433.467 166.407 433.467H167.863ZM170.054 417.087C170.054 416.654 170.201 416.307 170.496 416.047C170.79 415.77 171.18 415.631 171.666 415.631C172.151 415.631 172.541 415.77 172.836 416.047C173.13 416.307 173.278 416.654 173.278 417.087C173.278 417.52 173.13 417.876 172.836 418.153C172.541 418.413 172.151 418.543 171.666 418.543C171.18 418.543 170.79 418.413 170.496 418.153C170.201 417.876 170.054 417.52 170.054 417.087ZM172.836 421.273V435.547H170.47V421.273H172.836ZM182.834 421.091C184.203 421.091 185.425 421.386 186.5 421.975C187.592 422.564 188.441 423.414 189.048 424.523C189.672 425.632 189.984 426.932 189.984 428.423C189.984 429.914 189.672 431.214 189.048 432.323C188.441 433.415 187.592 434.256 186.5 434.845C185.425 435.434 184.203 435.729 182.834 435.729C181.464 435.729 180.234 435.434 179.142 434.845C178.067 434.256 177.218 433.415 176.594 432.323C175.97 431.214 175.658 429.914 175.658 428.423C175.658 426.932 175.97 425.632 176.594 424.523C177.218 423.414 178.067 422.564 179.142 421.975C180.234 421.386 181.464 421.091 182.834 421.091ZM182.834 423.171C181.984 423.171 181.196 423.362 180.468 423.743C179.757 424.124 179.176 424.714 178.726 425.511C178.292 426.291 178.076 427.262 178.076 428.423C178.076 429.567 178.292 430.538 178.726 431.335C179.176 432.115 179.757 432.696 180.468 433.077C181.196 433.458 181.984 433.649 182.834 433.649C183.683 433.649 184.463 433.458 185.174 433.077C185.902 432.696 186.482 432.115 186.916 431.335C187.366 430.538 187.592 429.567 187.592 428.423C187.592 427.262 187.366 426.291 186.916 425.511C186.482 424.714 185.902 424.124 185.174 423.743C184.463 423.362 183.683 423.171 182.834 423.171ZM200.301 421.039C201.965 421.039 203.308 421.576 204.331 422.651C205.353 423.708 205.865 425.242 205.865 427.253V435.547H203.499V427.461C203.499 426.04 203.135 424.948 202.407 424.185C201.679 423.422 200.691 423.041 199.443 423.041C198.143 423.041 197.103 423.466 196.323 424.315C195.543 425.147 195.153 426.369 195.153 427.981V435.547H192.787V421.273H195.153V424.653C195.517 423.492 196.158 422.599 197.077 421.975C198.013 421.351 199.087 421.039 200.301 421.039ZM232.908 421.039C234.572 421.039 235.906 421.576 236.912 422.651C237.934 423.708 238.446 425.242 238.446 427.253V435.547H236.08V427.461C236.08 426.057 235.733 424.982 235.04 424.237C234.364 423.492 233.428 423.119 232.232 423.119C230.984 423.119 229.978 423.535 229.216 424.367C228.47 425.182 228.098 426.386 228.098 427.981V435.547H225.732V427.461C225.732 426.057 225.385 424.982 224.692 424.237C223.998 423.492 223.062 423.119 221.884 423.119C220.618 423.119 219.604 423.535 218.842 424.367C218.096 425.182 217.724 426.386 217.724 427.981V435.547H215.358V421.273H217.724V424.523C218.07 423.396 218.686 422.538 219.57 421.949C220.471 421.342 221.502 421.039 222.664 421.039C223.877 421.039 224.926 421.351 225.81 421.975C226.711 422.582 227.352 423.483 227.734 424.679C228.132 423.518 228.8 422.625 229.736 422.001C230.672 421.36 231.729 421.039 232.908 421.039ZM247.689 421.091C249.076 421.091 250.246 421.438 251.199 422.131C252.17 422.824 252.846 423.752 253.227 424.913V421.273H255.593V435.547H253.227V431.907C252.846 433.068 252.17 433.996 251.199 434.689C250.246 435.382 249.076 435.729 247.689 435.729C246.424 435.729 245.297 435.434 244.309 434.845C243.321 434.256 242.541 433.415 241.969 432.323C241.415 431.214 241.137 429.914 241.137 428.423C241.137 426.932 241.415 425.632 241.969 424.523C242.541 423.414 243.321 422.564 244.309 421.975C245.297 421.386 246.424 421.091 247.689 421.091ZM248.365 423.197C246.909 423.197 245.739 423.665 244.855 424.601C243.989 425.52 243.555 426.794 243.555 428.423C243.555 430.052 243.989 431.335 244.855 432.271C245.739 433.19 246.909 433.649 248.365 433.649C249.301 433.649 250.133 433.432 250.861 432.999C251.607 432.566 252.187 431.959 252.603 431.179C253.019 430.382 253.227 429.463 253.227 428.423C253.227 427.383 253.019 426.464 252.603 425.667C252.187 424.87 251.607 424.263 250.861 423.847C250.133 423.414 249.301 423.197 248.365 423.197ZM264.929 421.091C266.316 421.091 267.486 421.438 268.439 422.131C269.41 422.824 270.086 423.752 270.467 424.913V416.307H272.833V435.547H270.467V431.907C270.086 433.068 269.41 433.996 268.439 434.689C267.486 435.382 266.316 435.729 264.929 435.729C263.664 435.729 262.537 435.434 261.549 434.845C260.561 434.256 259.781 433.415 259.209 432.323C258.654 431.214 258.377 429.914 258.377 428.423C258.377 426.932 258.654 425.632 259.209 424.523C259.781 423.414 260.561 422.564 261.549 421.975C262.537 421.386 263.664 421.091 264.929 421.091ZM265.605 423.197C264.149 423.197 262.979 423.665 262.095 424.601C261.228 425.52 260.795 426.794 260.795 428.423C260.795 430.052 261.228 431.335 262.095 432.271C262.979 433.19 264.149 433.649 265.605 433.649C266.541 433.649 267.373 433.432 268.101 432.999C268.846 432.566 269.427 431.959 269.843 431.179C270.259 430.382 270.467 429.463 270.467 428.423C270.467 427.383 270.259 426.464 269.843 425.667C269.427 424.87 268.846 424.263 268.101 423.847C267.373 423.414 266.541 423.197 265.605 423.197ZM289.448 427.617C289.448 428.12 289.414 428.553 289.344 428.917H277.93C277.982 430.546 278.442 431.768 279.308 432.583C280.192 433.398 281.267 433.805 282.532 433.805C283.676 433.805 284.63 433.519 285.392 432.947C286.172 432.358 286.649 431.578 286.822 430.607H289.344C289.171 431.595 288.781 432.479 288.174 433.259C287.585 434.039 286.814 434.646 285.86 435.079C284.907 435.512 283.832 435.729 282.636 435.729C281.267 435.729 280.054 435.434 278.996 434.845C277.939 434.256 277.107 433.415 276.5 432.323C275.911 431.214 275.616 429.914 275.616 428.423C275.616 426.932 275.911 425.632 276.5 424.523C277.107 423.414 277.939 422.564 278.996 421.975C280.054 421.386 281.267 421.091 282.636 421.091C284.023 421.091 285.228 421.386 286.25 421.975C287.29 422.564 288.079 423.353 288.616 424.341C289.171 425.329 289.448 426.421 289.448 427.617ZM287.056 427.773C287.108 426.716 286.935 425.832 286.536 425.121C286.138 424.41 285.592 423.882 284.898 423.535C284.205 423.188 283.451 423.015 282.636 423.015C281.336 423.015 280.244 423.422 279.36 424.237C278.476 425.034 278 426.213 277.93 427.773H287.056ZM302.879 421.091C304.491 421.091 305.782 421.516 306.753 422.365C307.741 423.197 308.339 424.324 308.547 425.745H306.285C306.181 424.896 305.825 424.202 305.219 423.665C304.629 423.11 303.832 422.833 302.827 422.833C301.977 422.833 301.31 423.041 300.825 423.457C300.357 423.856 300.123 424.402 300.123 425.095C300.123 425.615 300.279 426.04 300.591 426.369C300.92 426.681 301.319 426.924 301.787 427.097C302.272 427.253 302.931 427.426 303.763 427.617C304.82 427.86 305.669 428.111 306.311 428.371C306.969 428.614 307.524 429.012 307.975 429.567C308.443 430.122 308.677 430.867 308.677 431.803C308.677 432.964 308.235 433.909 307.351 434.637C306.484 435.365 305.323 435.729 303.867 435.729C302.168 435.729 300.781 435.322 299.707 434.507C298.632 433.692 297.999 432.557 297.809 431.101H300.097C300.183 431.968 300.556 432.67 301.215 433.207C301.891 433.744 302.775 434.013 303.867 434.013C304.681 434.013 305.314 433.805 305.765 433.389C306.233 432.973 306.467 432.427 306.467 431.751C306.467 431.196 306.302 430.754 305.973 430.425C305.643 430.096 305.236 429.844 304.751 429.671C304.265 429.498 303.598 429.316 302.749 429.125C301.691 428.882 300.842 428.64 300.201 428.397C299.577 428.154 299.039 427.773 298.589 427.253C298.155 426.716 297.939 425.996 297.939 425.095C297.939 423.899 298.381 422.937 299.265 422.209C300.149 421.464 301.353 421.091 302.879 421.091ZM311.142 417.087C311.142 416.654 311.29 416.307 311.584 416.047C311.879 415.77 312.269 415.631 312.754 415.631C313.24 415.631 313.63 415.77 313.924 416.047C314.219 416.307 314.366 416.654 314.366 417.087C314.366 417.52 314.219 417.876 313.924 418.153C313.63 418.413 313.24 418.543 312.754 418.543C312.269 418.543 311.879 418.413 311.584 418.153C311.29 417.876 311.142 417.52 311.142 417.087ZM313.924 421.273V435.547H311.558V421.273H313.924ZM334.998 421.039C336.662 421.039 337.997 421.576 339.002 422.651C340.025 423.708 340.536 425.242 340.536 427.253V435.547H338.17V427.461C338.17 426.057 337.824 424.982 337.13 424.237C336.454 423.492 335.518 423.119 334.322 423.119C333.074 423.119 332.069 423.535 331.306 424.367C330.561 425.182 330.188 426.386 330.188 427.981V435.547H327.822V427.461C327.822 426.057 327.476 424.982 326.782 424.237C326.089 423.492 325.153 423.119 323.974 423.119C322.709 423.119 321.695 423.535 320.932 424.367C320.187 425.182 319.814 426.386 319.814 427.981V435.547H317.448V421.273H319.814V424.523C320.161 423.396 320.776 422.538 321.66 421.949C322.562 421.342 323.593 421.039 324.754 421.039C325.968 421.039 327.016 421.351 327.9 421.975C328.802 422.582 329.443 423.483 329.824 424.679C330.223 423.518 330.89 422.625 331.826 422.001C332.762 421.36 333.82 421.039 334.998 421.039ZM351.808 421.091C353.073 421.091 354.2 421.386 355.188 421.975C356.176 422.564 356.947 423.414 357.502 424.523C358.074 425.632 358.36 426.932 358.36 428.423C358.36 429.914 358.074 431.214 357.502 432.323C356.947 433.415 356.176 434.256 355.188 434.845C354.2 435.434 353.073 435.729 351.808 435.729C350.421 435.729 349.243 435.382 348.272 434.689C347.319 433.978 346.66 433.051 346.296 431.907V442.307H343.93V421.273H346.296V424.913C346.66 423.769 347.319 422.85 348.272 422.157C349.243 421.446 350.421 421.091 351.808 421.091ZM351.132 423.197C350.213 423.197 349.381 423.414 348.636 423.847C347.891 424.263 347.31 424.87 346.894 425.667C346.478 426.464 346.27 427.383 346.27 428.423C346.27 429.463 346.478 430.382 346.894 431.179C347.31 431.959 347.891 432.566 348.636 432.999C349.381 433.432 350.213 433.649 351.132 433.649C352.605 433.649 353.775 433.19 354.642 432.271C355.526 431.335 355.968 430.052 355.968 428.423C355.968 426.794 355.526 425.52 354.642 424.601C353.775 423.665 352.605 423.197 351.132 423.197ZM363.536 416.307V435.547H361.17V416.307H363.536ZM380.19 427.617C380.19 428.12 380.155 428.553 380.086 428.917H368.672C368.724 430.546 369.183 431.768 370.05 432.583C370.934 433.398 372.008 433.805 373.274 433.805C374.418 433.805 375.371 433.519 376.134 432.947C376.914 432.358 377.39 431.578 377.564 430.607H380.086C379.912 431.595 379.522 432.479 378.916 433.259C378.326 434.039 377.555 434.646 376.602 435.079C375.648 435.512 374.574 435.729 373.378 435.729C372.008 435.729 370.795 435.434 369.738 434.845C368.68 434.256 367.848 433.415 367.242 432.323C366.652 431.214 366.358 429.914 366.358 428.423C366.358 426.932 366.652 425.632 367.242 424.523C367.848 423.414 368.68 422.564 369.738 421.975C370.795 421.386 372.008 421.091 373.378 421.091C374.764 421.091 375.969 421.386 376.992 421.975C378.032 422.564 378.82 423.353 379.358 424.341C379.912 425.329 380.19 426.421 380.19 427.617ZM377.798 427.773C377.85 426.716 377.676 425.832 377.278 425.121C376.879 424.41 376.333 423.882 375.64 423.535C374.946 423.188 374.192 423.015 373.378 423.015C372.078 423.015 370.986 423.422 370.102 424.237C369.218 425.034 368.741 426.213 368.672 427.773H377.798ZM384.746 432.765V435.547H381.886V432.765H384.746Z" fill="#1E2330"/>
<defs>
<clipPath id="clip0_61_483">
<rect width="132.954" height="215.579" fill="white" transform="translate(117.703 91.8984)"/>
</clipPath>
<clipPath id="clip1_61_483">
<rect width="132.967" height="215.58" fill="white" transform="translate(213.739 91.8984)"/>
</clipPath>
<clipPath id="clip2_61_483">
<rect width="132.954" height="215.579" fill="white" transform="translate(309.788 91.8984)"/>
</clipPath>
<clipPath id="clip3_61_483">
<rect width="132.954" height="215.579" fill="white" transform="translate(405.824 91.8984)"/>
</clipPath>
<clipPath id="clip4_61_483">
<rect width="132.967" height="215.58" fill="white" transform="translate(501.861 91.8984)"/>
</clipPath>
</defs>
</svg>
