<svg width="277" height="70" viewBox="0 0 277 70" fill="none" xmlns="http://www.w3.org/2000/svg">
<g clip-path="url(#clip0_61_222)">
<g clip-path="url(#clip1_61_222)">
<path d="M128.445 26.0001L127.389 26V49.9999L128.445 50V26.0001Z" fill="black"/>
<path d="M139 45.24H141.167V32.48L146.196 45.24H148.792L153.8 32.52V45.24H155.967V30H152.594L147.504 43.18L142.393 30H139V45.24ZM161.685 45.54C163.484 45.54 164.996 44.76 165.978 43.46V45.24H168.063V38.98C168.063 35.86 166.039 33.98 162.952 33.98C160.172 33.98 158.21 35.66 157.882 37.66H160.029C160.315 36.48 161.358 35.82 162.789 35.82C164.812 35.82 165.916 36.9 165.978 38.8H162.278C159.313 38.8 157.555 40.04 157.555 42.28C157.555 44.3 159.129 45.54 161.685 45.54ZM159.62 42.12C159.62 41.06 160.52 40.48 162.666 40.48H165.916C165.569 42.54 163.77 43.74 161.95 43.74C160.54 43.74 159.62 43.1 159.62 42.12ZM170.28 45.24H172.365V39.94C172.365 37.48 173.428 35.9 175.431 35.9C176.065 35.9 176.637 36.1 176.903 36.34V34.28C176.494 34.08 176.106 33.98 175.411 33.98C174.143 33.98 172.998 34.7 172.365 35.82V34.28H170.28V45.24ZM178.28 45.24H180.365V42.44L182.757 40.06L186.436 45.24H188.848L184.106 38.72L188.603 34.28H185.884L180.365 39.8V30H178.28V45.24ZM194.626 45.54C197.284 45.54 199.492 43.82 199.839 41.64H197.713C197.345 42.86 196.098 43.68 194.626 43.68C192.521 43.68 191.172 42.36 191.008 40.22H199.962V39.84C199.962 35.86 197.325 33.98 194.442 33.98C191.131 33.98 188.984 36.5 188.984 39.76C188.984 43.26 191.233 45.54 194.626 45.54ZM191.131 38.52C191.54 36.9 192.766 35.82 194.442 35.82C196.2 35.82 197.447 36.88 197.713 38.52H191.131ZM205.243 45.54C206.081 45.54 206.899 45.22 207.287 44.74V43.06C206.899 43.42 206.367 43.66 205.774 43.66C204.855 43.66 204.487 43.18 204.487 42.02V35.98H207.41V34.28H204.487V31.52H202.401V34.28H200.521V35.98H202.401V42.48C202.401 44.4 203.464 45.54 205.243 45.54ZM214.716 45.54C217.884 45.54 220.031 43.04 220.031 39.74C220.031 36.44 217.884 33.98 214.716 33.98C213.142 33.98 211.854 34.6 210.934 35.64V34.28H208.849V50H210.934V43.86C211.854 44.9 213.142 45.54 214.716 45.54ZM210.934 39.74C210.934 37.44 212.345 35.8 214.45 35.8C216.576 35.8 218.048 37.5 218.048 39.74C218.048 42 216.576 43.7 214.45 43.7C212.345 43.7 210.934 42.06 210.934 39.74ZM221.859 45.24H223.944V30H221.859V45.24ZM229.965 45.54C231.764 45.54 233.276 44.76 234.258 43.46V45.24H236.343V38.98C236.343 35.86 234.319 33.98 231.232 33.98C228.452 33.98 226.49 35.66 226.162 37.66H228.309C228.595 36.48 229.638 35.82 231.069 35.82C233.092 35.82 234.196 36.9 234.258 38.8H230.558C227.593 38.8 225.835 40.04 225.835 42.28C225.835 44.3 227.409 45.54 229.965 45.54ZM227.9 42.12C227.9 41.06 228.799 40.48 230.946 40.48H234.196C233.849 42.54 232.05 43.74 230.23 43.74C228.82 43.74 227.9 43.1 227.9 42.12ZM243.59 45.54C246.289 45.54 248.353 43.88 248.844 41.46H246.718C246.371 42.84 245.124 43.68 243.59 43.68C241.526 43.68 239.993 42.06 239.993 39.74C239.993 37.46 241.505 35.82 243.59 35.82C245.083 35.82 246.33 36.64 246.698 37.98H248.844C248.353 35.54 246.227 33.98 243.59 33.98C240.299 33.98 237.989 36.48 237.989 39.74C237.989 43.16 240.401 45.54 243.59 45.54ZM255.665 45.54C258.322 45.54 260.53 43.82 260.877 41.64H258.751C258.383 42.86 257.136 43.68 255.665 43.68C253.559 43.68 252.21 42.36 252.046 40.22H261V39.84C261 35.86 258.363 33.98 255.481 33.98C252.169 33.98 250.023 36.5 250.023 39.76C250.023 43.26 252.271 45.54 255.665 45.54ZM252.169 38.52C252.578 36.9 253.804 35.82 255.481 35.82C257.239 35.82 258.486 36.88 258.751 38.52H252.169Z" fill="black"/>
</g>
<g clip-path="url(#clip2_61_222)">
<path d="M26.8307 29.073C26.6176 28.8659 26.3185 28.7718 26.0259 28.8199C25.7327 28.8679 25.4795 29.0519 25.3435 29.316C24.8757 30.2247 24.2816 31.0598 23.5826 31.798C23.6523 31.2647 23.6874 30.7283 23.6874 30.1904C23.6874 29.1584 23.5491 28.0963 23.2761 27.0334C22.3787 23.542 20.0256 20.5895 16.8203 18.9328C16.5412 18.7886 16.2087 18.7937 15.9342 18.9463C15.6596 19.099 15.4798 19.3789 15.4552 19.692C15.2053 22.8648 13.5711 25.7513 10.969 27.6133C10.9346 27.6381 10.9004 27.6632 10.8662 27.6882C10.7954 27.74 10.7286 27.789 10.6662 27.8302C10.6565 27.8367 10.6468 27.8433 10.6373 27.8501C9.0008 29.0218 7.65049 30.5837 6.73218 32.3674C5.79905 34.1817 5.32593 36.1286 5.32593 38.1539C5.32593 39.1857 5.46424 40.2477 5.73705 41.3109C7.17674 46.9144 12.2195 50.828 18.0001 50.828C24.9883 50.828 30.6736 45.1424 30.6736 38.1539C30.6736 34.7077 29.3088 31.4827 26.8307 29.073Z" fill="#28A263"/>
<circle cx="17.0589" cy="37.6519" r="3.76471" fill="white"/>
</g>
<path d="M116.673 28.8022V26.7506H116.037V26.2966H117.82V26.7506H117.194V28.8022H116.673ZM118.078 28.8022V26.2966H118.582L119.521 27.541H119.285L120.197 26.2966H120.701V28.8022H120.18V26.8717L120.388 26.9188L119.423 28.1632H119.356L118.424 26.9188L118.599 26.8717V28.8022H118.078Z" fill="black"/>
<path d="M42.088 47.6161C40.968 47.6161 39.912 47.4161 38.92 47.0161C37.944 46.6001 37.096 46.0161 36.376 45.2641C35.672 44.5121 35.144 43.6241 34.792 42.6001L37.84 41.2321C38.288 42.2081 38.904 42.9761 39.688 43.5361C40.488 44.0961 41.368 44.3761 42.328 44.3761C42.84 44.3761 43.28 44.2961 43.648 44.1361C44.016 43.9761 44.304 43.7601 44.512 43.4881C44.72 43.2001 44.824 42.8641 44.824 42.4801C44.824 42.0641 44.696 41.7121 44.44 41.4241C44.184 41.1201 43.784 40.8801 43.24 40.7041L39.736 39.5521C38.312 39.0881 37.24 38.4321 36.52 37.5841C35.8 36.7201 35.44 35.6881 35.44 34.4881C35.44 33.4321 35.696 32.5041 36.208 31.7041C36.736 30.9041 37.464 30.2801 38.392 29.8321C39.336 29.3841 40.416 29.1601 41.632 29.1601C42.704 29.1601 43.696 29.3441 44.608 29.7121C45.52 30.0801 46.304 30.6001 46.96 31.2721C47.632 31.9441 48.136 32.7521 48.472 33.6961L45.448 35.0641C45.112 34.2321 44.608 33.5841 43.936 33.1201C43.264 32.6401 42.496 32.4001 41.632 32.4001C41.136 32.4001 40.696 32.4801 40.312 32.6401C39.928 32.8001 39.632 33.0321 39.424 33.3361C39.216 33.6241 39.112 33.9601 39.112 34.3441C39.112 34.7601 39.248 35.1281 39.52 35.4481C39.792 35.7521 40.2 35.9921 40.744 36.1681L44.176 37.2721C45.616 37.7361 46.688 38.3841 47.392 39.2161C48.112 40.0481 48.472 41.0641 48.472 42.2641C48.472 43.3041 48.2 44.2321 47.656 45.0481C47.112 45.8481 46.36 46.4801 45.4 46.9441C44.456 47.3921 43.352 47.6161 42.088 47.6161ZM51.1231 47.3281V29.4481H57.9871C59.2191 29.4481 60.3071 29.6641 61.2511 30.0961C62.2111 30.5281 62.9631 31.1681 63.5071 32.0161C64.0511 32.8641 64.3231 33.9121 64.3231 35.1601C64.3231 36.3761 64.0431 37.4081 63.4831 38.2561C62.9391 39.1041 62.1871 39.7521 61.2271 40.2001C60.2831 40.6321 59.2031 40.8481 57.9871 40.8481H54.8431V47.3281H51.1231ZM54.8431 37.6081H58.0111C58.5391 37.6081 58.9951 37.5041 59.3791 37.2961C59.7631 37.0881 60.0591 36.8001 60.2671 36.4321C60.4911 36.0641 60.6031 35.6401 60.6031 35.1601C60.6031 34.6641 60.4911 34.2321 60.2671 33.8641C60.0591 33.4961 59.7631 33.2081 59.3791 33.0001C58.9951 32.7921 58.5391 32.6881 58.0111 32.6881H54.8431V37.6081ZM63.9593 47.3281L70.0073 29.4481H74.9513L80.9993 47.3281H76.9433L75.7433 43.6801H69.1913L67.9913 47.3281H63.9593ZM70.2233 40.4401H74.7113L71.9753 31.9921H72.9833L70.2233 40.4401ZM82.8574 47.3281V29.4481H89.6974C90.9294 29.4481 92.0174 29.6641 92.9614 30.0961C93.9214 30.5281 94.6734 31.1681 95.2174 32.0161C95.7614 32.8641 96.0334 33.9121 96.0334 35.1601C96.0334 36.3761 95.7534 37.4161 95.1934 38.2801C94.6334 39.1281 93.8814 39.7681 92.9374 40.2001L97.0174 47.3281H92.8414L88.4254 39.4321L90.8254 40.8481H86.5774V47.3281H82.8574ZM86.5774 37.6081H89.7214C90.2494 37.6081 90.7054 37.5041 91.0894 37.2961C91.4734 37.0881 91.7694 36.8001 91.9774 36.4321C92.2014 36.0641 92.3134 35.6401 92.3134 35.1601C92.3134 34.6641 92.2014 34.2321 91.9774 33.8641C91.7694 33.4961 91.4734 33.2081 91.0894 33.0001C90.7054 32.7921 90.2494 32.6881 89.7214 32.6881H86.5774V37.6081ZM98.8652 47.3281V29.4481H102.585V38.4001L101.553 38.0401L108.705 29.4481H113.361L106.281 37.9921L106.497 35.3521L113.505 47.3281H109.161L104.793 39.7681L102.585 42.4321V47.3281H98.8652Z" fill="black"/>
</g>
<defs>
<clipPath id="clip0_61_222">
<rect width="277" height="70" fill="white"/>
</clipPath>
<clipPath id="clip1_61_222">
<rect width="283" height="26" fill="white" transform="translate(-12 22)"/>
</clipPath>
<clipPath id="clip2_61_222">
<rect width="32" height="32" fill="white" transform="translate(2 18.8281)"/>
</clipPath>
</defs>
</svg>
