<svg width="1050" height="30" viewBox="0 0 1050 30" fill="none" xmlns="http://www.w3.org/2000/svg">
<path d="M18.928 8.176V11.6H23.088V13.008H18.928V16.512H23.568V18H17.104V6.704H23.568V8.176H18.928ZM28.8744 9.072C29.6744 9.072 30.357 9.26933 30.9224 9.664C31.4877 10.0587 31.8824 10.5813 32.1064 11.232V6.16H33.9464V18H32.1064V15.952C31.8824 16.6027 31.4877 17.1253 30.9224 17.52C30.357 17.9147 29.6744 18.112 28.8744 18.112C28.1064 18.112 27.4184 17.9307 26.8104 17.568C26.213 17.2053 25.7437 16.6827 25.4024 16C25.061 15.3173 24.8904 14.512 24.8904 13.584C24.8904 12.6667 25.061 11.8667 25.4024 11.184C25.7437 10.5013 26.213 9.97867 26.8104 9.616C27.4184 9.25333 28.1064 9.072 28.8744 9.072ZM29.4344 10.672C28.6237 10.672 27.973 10.9333 27.4824 11.456C27.0024 11.968 26.7624 12.6773 26.7624 13.584C26.7624 14.4907 27.0024 15.2053 27.4824 15.728C27.973 16.24 28.6237 16.496 29.4344 16.496C29.9464 16.496 30.405 16.3787 30.8104 16.144C31.2157 15.8987 31.5357 15.5573 31.7704 15.12C32.005 14.6827 32.1224 14.1707 32.1224 13.584C32.1224 13.008 32.005 12.5013 31.7704 12.064C31.5357 11.616 31.2157 11.2747 30.8104 11.04C30.405 10.7947 29.9464 10.672 29.4344 10.672ZM35.8793 6.624C35.8793 6.31467 35.9859 6.05867 36.1993 5.856C36.4126 5.65333 36.6953 5.552 37.0473 5.552C37.3993 5.552 37.6819 5.65333 37.8953 5.856C38.1193 6.05867 38.2313 6.31467 38.2313 6.624C38.2313 6.93333 38.1193 7.184 37.8953 7.376C37.6819 7.568 37.3993 7.664 37.0473 7.664C36.6953 7.664 36.4126 7.568 36.1993 7.376C35.9859 7.184 35.8793 6.93333 35.8793 6.624ZM37.9593 9.184V18H36.1353V9.184H37.9593ZM44.5985 16.416V18H43.4785C42.5398 18 41.8252 17.776 41.3345 17.328C40.8545 16.8693 40.6145 16.112 40.6145 15.056V10.736H39.3505V9.184H40.6145V6.992H42.4545V9.184H44.5825V10.736H42.4545V15.088C42.4545 15.5893 42.5452 15.936 42.7265 16.128C42.9185 16.32 43.2492 16.416 43.7185 16.416H44.5985ZM51.8811 13.616V18H50.0571V6.704H53.8971C55.1985 6.704 56.1745 7.01333 56.8251 7.632C57.4865 8.25067 57.8171 9.09867 57.8171 10.176C57.8171 11.2427 57.4811 12.0853 56.8091 12.704C56.1371 13.312 55.1665 13.616 53.8971 13.616H51.8811ZM53.7051 12.128C55.2091 12.128 55.9611 11.4773 55.9611 10.176C55.9611 9.536 55.7798 9.05067 55.4171 8.72C55.0651 8.37867 54.4945 8.208 53.7051 8.208H51.8811V12.128H53.7051ZM61.2405 10.912C61.5392 10.336 61.9658 9.88267 62.5205 9.552C63.0752 9.21067 63.7152 9.04 64.4405 9.04V11.024H63.8965C63.0965 11.024 62.4512 11.2213 61.9605 11.616C61.4805 12 61.2405 12.64 61.2405 13.536V18H59.4165V9.184H61.2405V10.912ZM69.8391 9.072C70.6925 9.072 71.4605 9.25333 72.1431 9.616C72.8258 9.97867 73.3591 10.5013 73.7431 11.184C74.1271 11.8667 74.3191 12.6667 74.3191 13.584C74.3191 14.512 74.1271 15.3173 73.7431 16C73.3591 16.6827 72.8258 17.2053 72.1431 17.568C71.4605 17.9307 70.6925 18.112 69.8391 18.112C68.9858 18.112 68.2178 17.9307 67.5351 17.568C66.8631 17.2053 66.3298 16.6827 65.9351 16C65.5511 15.3067 65.3591 14.5013 65.3591 13.584C65.3591 12.6667 65.5511 11.8667 65.9351 11.184C66.3298 10.5013 66.8631 9.97867 67.5351 9.616C68.2178 9.25333 68.9858 9.072 69.8391 9.072ZM69.8391 10.656C69.3698 10.656 68.9378 10.7627 68.5431 10.976C68.1485 11.1893 67.8285 11.52 67.5831 11.968C67.3485 12.4053 67.2311 12.944 67.2311 13.584C67.2311 14.2347 67.3485 14.7787 67.5831 15.216C67.8285 15.6533 68.1485 15.9787 68.5431 16.192C68.9378 16.4053 69.3698 16.512 69.8391 16.512C70.3085 16.512 70.7405 16.4053 71.1351 16.192C71.5298 15.9787 71.8445 15.6533 72.0791 15.216C72.3245 14.7787 72.4471 14.2347 72.4471 13.584C72.4471 12.944 72.3245 12.4053 72.0791 11.968C71.8445 11.52 71.5298 11.1893 71.1351 10.976C70.7405 10.7627 70.3085 10.656 69.8391 10.656ZM80.1848 7.36C79.4701 7.328 78.9688 7.44533 78.6808 7.712C78.3928 7.968 78.2488 8.41067 78.2488 9.04V9.184H80.1848V10.752H78.2488V18H76.4088V10.752H75.2088V9.184H76.4088V8.896C76.4088 7.81867 76.7234 7.01333 77.3528 6.48C77.9821 5.936 78.9261 5.696 80.1848 5.76V7.36ZM81.3949 6.624C81.3949 6.31467 81.5015 6.05867 81.7149 5.856C81.9282 5.65333 82.2109 5.552 82.5629 5.552C82.9149 5.552 83.1975 5.65333 83.4109 5.856C83.6349 6.05867 83.7469 6.31467 83.7469 6.624C83.7469 6.93333 83.6349 7.184 83.4109 7.376C83.1975 7.568 82.9149 7.664 82.5629 7.664C82.2109 7.664 81.9282 7.568 81.7149 7.376C81.5015 7.184 81.3949 6.93333 81.3949 6.624ZM83.4749 9.184V18H81.6509V9.184H83.4749ZM87.5061 6.16V18H85.6821V6.16H87.5061ZM97.9054 13.168C97.9054 13.4667 97.884 13.728 97.8414 13.952H91.0574C91.0894 14.8587 91.34 15.5307 91.8094 15.968C92.2787 16.4053 92.86 16.624 93.5534 16.624C94.1614 16.624 94.6734 16.4693 95.0894 16.16C95.516 15.8507 95.7774 15.44 95.8734 14.928H97.8254C97.708 15.5467 97.4627 16.096 97.0894 16.576C96.716 17.056 96.2307 17.4347 95.6334 17.712C95.036 17.9787 94.3694 18.112 93.6334 18.112C92.78 18.112 92.0227 17.9307 91.3614 17.568C90.7107 17.2053 90.1987 16.6827 89.8254 16C89.452 15.3173 89.2654 14.512 89.2654 13.584C89.2654 12.6667 89.452 11.8667 89.8254 11.184C90.1987 10.5013 90.7107 9.97867 91.3614 9.616C92.0227 9.25333 92.78 9.072 93.6334 9.072C94.4974 9.072 95.2494 9.25333 95.8894 9.616C96.54 9.968 97.036 10.4587 97.3774 11.088C97.7294 11.7067 97.9054 12.4 97.9054 13.168ZM96.0654 13.12C96.0867 12.544 95.9854 12.064 95.7614 11.68C95.548 11.2853 95.2494 10.9973 94.8654 10.816C94.492 10.624 94.0814 10.528 93.6334 10.528C92.9187 10.528 92.3214 10.7467 91.8414 11.184C91.3614 11.6213 91.1 12.2667 91.0574 13.12H96.0654Z" fill="#29A263"/>
<rect y="29" width="1050" height="1" fill="#737373"/>
<path d="M0 30C0 28.3431 1.34315 27 3 27H111C112.657 27 114 28.3431 114 30H0Z" fill="#29A263"/>
</svg>
