<svg width="145" height="48" viewBox="0 0 145 48" fill="none" xmlns="http://www.w3.org/2000/svg">
<g clip-path="url(#clip0_43751_268)">
<path d="M33.3667 16.2306C33.0804 15.9429 32.6785 15.8122 32.2853 15.879C31.8913 15.9456 31.5511 16.2013 31.3683 16.5682C30.7398 17.8304 29.9414 18.9903 29.0022 20.0157C29.0958 19.275 29.1429 18.5299 29.1429 17.7827C29.1429 16.3491 28.9571 14.8739 28.5903 13.3974C27.3844 8.54784 24.2224 4.4466 19.9153 2.14538C19.5403 1.9451 19.0935 1.95213 18.7246 2.16413C18.3556 2.37622 18.114 2.76507 18.0809 3.20001C17.7451 7.60711 15.5491 11.6166 12.0526 14.203C12.0063 14.2375 11.9604 14.2724 11.9144 14.3071C11.8193 14.379 11.7296 14.4471 11.6458 14.5042C11.6327 14.5133 11.6197 14.5225 11.6069 14.5319C9.40784 16.1595 7.59336 18.329 6.35938 20.8066C5.10549 23.3268 4.46973 26.0311 4.46973 28.8444C4.46973 30.2775 4.65558 31.7528 5.02218 33.2295C6.95676 41.0131 13.733 46.4493 21.5007 46.4493C30.891 46.4493 38.5306 38.5517 38.5306 28.8444C38.5306 24.0574 36.6967 19.5777 33.3667 16.2306Z" fill="#28A263"/>
<ellipse cx="20.8488" cy="28.9391" rx="5.21212" ry="5.38781" fill="white"/>
</g>
<path d="M52.92 35.224C51.3627 35.224 49.9547 34.9573 48.696 34.424C47.4587 33.8907 46.4773 33.1227 45.752 32.12C45.0267 31.1173 44.6533 29.9333 44.632 28.568H49.432C49.496 29.4853 49.816 30.2107 50.392 30.744C50.9893 31.2773 51.8 31.544 52.824 31.544C53.8693 31.544 54.6907 31.2987 55.288 30.808C55.8853 30.296 56.184 29.6347 56.184 28.824C56.184 28.1627 55.9813 27.6187 55.576 27.192C55.1707 26.7653 54.6587 26.4347 54.04 26.2C53.4427 25.944 52.6107 25.6667 51.544 25.368C50.0933 24.9413 48.9093 24.5253 47.992 24.12C47.096 23.6933 46.3173 23.064 45.656 22.232C45.016 21.3787 44.696 20.248 44.696 18.84C44.696 17.5173 45.0267 16.3653 45.688 15.384C46.3493 14.4027 47.2773 13.656 48.472 13.144C49.6667 12.6107 51.032 12.344 52.568 12.344C54.872 12.344 56.7387 12.9093 58.168 14.04C59.6187 15.1493 60.4187 16.7067 60.568 18.712H55.64C55.5973 17.944 55.2667 17.3147 54.648 16.824C54.0507 16.312 53.2507 16.056 52.248 16.056C51.3733 16.056 50.6693 16.28 50.136 16.728C49.624 17.176 49.368 17.8267 49.368 18.68C49.368 19.2773 49.56 19.7787 49.944 20.184C50.3493 20.568 50.84 20.888 51.416 21.144C52.0133 21.3787 52.8453 21.656 53.912 21.976C55.3627 22.4027 56.5467 22.8293 57.464 23.256C58.3813 23.6827 59.1707 24.3227 59.832 25.176C60.4933 26.0293 60.824 27.1493 60.824 28.536C60.824 29.7307 60.5147 30.84 59.896 31.864C59.2773 32.888 58.3707 33.7093 57.176 34.328C55.9813 34.9253 54.5627 35.224 52.92 35.224ZM69.828 19.832C70.404 19.0213 71.1933 18.3493 72.196 17.816C73.22 17.2613 74.3827 16.984 75.684 16.984C77.1987 16.984 78.564 17.3573 79.78 18.104C81.0173 18.8507 81.988 19.9173 82.692 21.304C83.4173 22.6693 83.78 24.2587 83.78 26.072C83.78 27.8853 83.4173 29.496 82.692 30.904C81.988 32.2907 81.0173 33.368 79.78 34.136C78.564 34.904 77.1987 35.288 75.684 35.288C74.3827 35.288 73.2307 35.0213 72.228 34.488C71.2467 33.9547 70.4467 33.2827 69.828 32.472V43.448H65.348V17.272H69.828V19.832ZM79.204 26.072C79.204 25.0053 78.98 24.088 78.532 23.32C78.1053 22.5307 77.5293 21.9333 76.804 21.528C76.1 21.1227 75.332 20.92 74.5 20.92C73.6893 20.92 72.9213 21.1333 72.196 21.56C71.492 21.9653 70.916 22.5627 70.468 23.352C70.0413 24.1413 69.828 25.0693 69.828 26.136C69.828 27.2027 70.0413 28.1307 70.468 28.92C70.916 29.7093 71.492 30.3173 72.196 30.744C72.9213 31.1493 73.6893 31.352 74.5 31.352C75.332 31.352 76.1 31.1387 76.804 30.712C77.5293 30.2853 78.1053 29.6773 78.532 28.888C78.98 28.0987 79.204 27.16 79.204 26.072ZM86.5235 26.072C86.5235 24.28 86.8755 22.6907 87.5795 21.304C88.3048 19.9173 89.2755 18.8507 90.4915 18.104C91.7288 17.3573 93.1048 16.984 94.6195 16.984C95.9422 16.984 97.0942 17.2507 98.0755 17.784C99.0782 18.3173 99.8782 18.9893 100.475 19.8V17.272H104.987V35H100.475V32.408C99.8995 33.24 99.0995 33.9333 98.0755 34.488C97.0728 35.0213 95.9102 35.288 94.5875 35.288C93.0942 35.288 91.7288 34.904 90.4915 34.136C89.2755 33.368 88.3048 32.2907 87.5795 30.904C86.8755 29.496 86.5235 27.8853 86.5235 26.072ZM100.475 26.136C100.475 25.048 100.262 24.12 99.8355 23.352C99.4088 22.5627 98.8328 21.9653 98.1075 21.56C97.3822 21.1333 96.6035 20.92 95.7715 20.92C94.9395 20.92 94.1715 21.1227 93.4675 21.528C92.7635 21.9333 92.1875 22.5307 91.7395 23.32C91.3128 24.088 91.0995 25.0053 91.0995 26.072C91.0995 27.1387 91.3128 28.0773 91.7395 28.888C92.1875 29.6773 92.7635 30.2853 93.4675 30.712C94.1928 31.1387 94.9608 31.352 95.7715 31.352C96.6035 31.352 97.3822 31.1493 98.1075 30.744C98.8328 30.3173 99.4088 29.72 99.8355 28.952C100.262 28.1627 100.475 27.224 100.475 26.136ZM114.483 20.024C115.059 19.0853 115.806 18.3493 116.723 17.816C117.662 17.2827 118.728 17.016 119.923 17.016V21.72H118.739C117.331 21.72 116.264 22.0507 115.539 22.712C114.835 23.3733 114.483 24.5253 114.483 26.168V35H110.003V17.272H114.483V20.024ZM134.076 35L128.06 27.448V35H123.58V11.32H128.06V24.792L134.012 17.272H139.836L132.028 26.168L139.9 35H134.076Z" fill="black"/>
<defs>
<clipPath id="clip0_43751_268">
<rect width="43" height="44.4494" fill="white" transform="translate(0 2)"/>
</clipPath>
</defs>
</svg>
